<svg xmlns="http://www.w3.org/2000/svg" viewBox="0 0 62.92 55.81"><defs><style>.cls-1{fill:#1a9bdc;}</style></defs><g id="Layer_2" data-name="Layer 2"><g id="Layer_1-2" data-name="Layer 1"><path class="cls-1" d="M28.54,55.16H25.73V45a5.08,5.08,0,0,0-.53-2.27A5.32,5.32,0,0,0,23.88,41L11.94,32.89V27.7a1.22,1.22,0,0,0,0-.6,1.18,1.18,0,0,0-.59,0h-3v8.06h-3V26.92a3,3,0,0,1,.21-1.18,3.11,3.11,0,0,1,1.65-1.69,3.22,3.22,0,0,1,1.18-.23h2.87a3.79,3.79,0,0,1,1.45.29,3.57,3.57,0,0,1,1.21.86,3.49,3.49,0,0,1,.77,1.26,3.67,3.67,0,0,1,.21,1.47v4l10.45,7a8,8,0,0,1,2.38,2.74,7.9,7.9,0,0,1,.9,3.53Z"/><path class="cls-1" d="M16.54,55.81H13.8V49l-11-7.53a5.47,5.47,0,0,1-2-1.85A5.93,5.93,0,0,1,0,36.41V19.76a5.07,5.07,0,0,1,5.07-5.08H7.59A4.1,4.1,0,0,1,9.21,15a3.93,3.93,0,0,1,1.36.95,3.83,3.83,0,0,1,.94,1.35,4,4,0,0,1,.32,1.63v6.33H9V18.92a1.36,1.36,0,0,0-.42-1,1.16,1.16,0,0,0-.46-.32,1.28,1.28,0,0,0-.55-.09H5.08a2.27,2.27,0,0,0-2.27,2.27V36.41A3.46,3.46,0,0,0,3.17,38a3.7,3.7,0,0,0,1.13,1.2l12.24,8.35Z"/><path class="cls-1" d="M37.2,55.16H34.39V45a7.34,7.34,0,0,1,.9-3.52,7.42,7.42,0,0,1,2.38-2.75l10.45-7.28V27.7a3.65,3.65,0,0,1,1.07-2.57,3.71,3.71,0,0,1,2.57-1.07h2.87a2.91,2.91,0,0,1,2.14,1,2.75,2.75,0,0,1,.68,1,2.93,2.93,0,0,1,.22,1.17v8H54.86V26.92h-3.1a1.22,1.22,0,0,0-.6,0,.88.88,0,0,0,0,.6V33L39.28,41a5.48,5.48,0,0,0-1.55,1.73A5.08,5.08,0,0,0,37.2,45Z"/><path class="cls-1" d="M49.13,55.81h-2.8V47.52l12.24-8.36A3.11,3.11,0,0,0,59.7,38a2.89,2.89,0,0,0,.42-1.55V19.76a2.35,2.35,0,0,0-.42-1.61A2.41,2.41,0,0,0,58,17.49H55.34a1.29,1.29,0,0,0-.58.1,1.43,1.43,0,0,0-.49.32,1.54,1.54,0,0,0-.54,1v6.33H51.1V18.92a4.42,4.42,0,0,1,.3-1.61,4.18,4.18,0,0,1,.9-1.37A4.38,4.38,0,0,1,53.69,15a4.48,4.48,0,0,1,1.65-.32h2.45a5.25,5.25,0,0,1,2,.37,5.07,5.07,0,0,1,2.78,2.75,5.08,5.08,0,0,1,.39,2V36.41a6.25,6.25,0,0,1-.77,2.93,6.15,6.15,0,0,1-2.09,2.21L49.13,49Z"/><path class="cls-1" d="M35,28.77H27a1.36,1.36,0,0,1-1.43-1.07V19.82H17.91a1.44,1.44,0,0,1-1-.44,1.42,1.42,0,0,1-.4-1v-8A1.38,1.38,0,0,1,17.91,9h7.65V1.43A1.42,1.42,0,0,1,27,0h8a1.43,1.43,0,0,1,1.43,1.43V9H44a1.38,1.38,0,0,1,1,.41,1.34,1.34,0,0,1,.4,1v8A1.42,1.42,0,0,1,44,19.82H36.42V27.7a1.35,1.35,0,0,1-.52.8A1.36,1.36,0,0,1,35,28.77ZM28.36,26h5.25V18.39A1.38,1.38,0,0,1,35,17h7.58V11.76H35a1.38,1.38,0,0,1-1.38-1.37V2.81H28.36v7.58a1.37,1.37,0,0,1-.4,1,1.41,1.41,0,0,1-1,.4H19.41V17H27a1.41,1.41,0,0,1,1,.4,1.38,1.38,0,0,1,.4,1Z"/></g></g></svg>