<svg xmlns="http://www.w3.org/2000/svg" viewBox="0 0 62.92 55.81"><defs><style>.cls-1{fill:#1a9bdc}</style></defs><g id="Layer_2" data-name="Layer 2"><g id="Layer_1-2" data-name="Layer 1"><path class="cls-1" d="M28.54 55.16h-2.81V45a5.08 5.08 0 00-.53-2.27A5.32 5.32 0 0023.88 41l-11.94-8.11V27.7a1.22 1.22 0 000-.6 1.18 1.18 0 00-.59 0h-3v8.06h-3v-8.24a3 3 0 01.21-1.18 3.11 3.11 0 011.65-1.69 3.22 3.22 0 011.18-.23h2.87a3.79 3.79 0 011.45.29 3.57 3.57 0 011.21.86 3.49 3.49 0 01.77 1.26 3.67 3.67 0 01.21 1.47v4l10.45 7a8 8 0 012.38 2.74 7.9 7.9 0 01.9 3.53z"/><path class="cls-1" d="M16.54 55.81H13.8V49l-11-7.53a5.47 5.47 0 01-2-1.85 5.93 5.93 0 01-.8-3.21V19.76a5.07 5.07 0 015.07-5.08h2.52a4.1 4.1 0 011.62.32 3.93 3.93 0 011.36.95 3.83 3.83 0 01.94 1.35 4 4 0 01.32 1.63v6.33H9v-6.34a1.36 1.36 0 00-.42-1 1.16 1.16 0 00-.46-.32 1.28 1.28 0 00-.55-.09H5.08a2.27 2.27 0 00-2.27 2.27v16.63A3.46 3.46 0 003.17 38a3.7 3.7 0 001.13 1.2l12.24 8.35zm20.66-.65h-2.81V45a7.34 7.34 0 01.9-3.52 7.42 7.42 0 012.38-2.75l10.45-7.28V27.7a3.65 3.65 0 011.07-2.57 3.71 3.71 0 012.57-1.07h2.87a2.91 2.91 0 012.14 1 2.75 2.75 0 01.68 1 2.93 2.93 0 01.22 1.17v8h-2.81v-8.31h-3.1a1.22 1.22 0 00-.6 0 .88.88 0 000 .6V33l-11.88 8a5.48 5.48 0 00-1.55 1.73A5.08 5.08 0 0037.2 45z"/><path class="cls-1" d="M49.13 55.81h-2.8v-8.29l12.24-8.36A3.11 3.11 0 0059.7 38a2.89 2.89 0 00.42-1.55V19.76a2.35 2.35 0 00-.42-1.61 2.41 2.41 0 00-1.7-.66h-2.66a1.29 1.29 0 00-.58.1 1.43 1.43 0 00-.49.32 1.54 1.54 0 00-.54 1v6.33H51.1v-6.32a4.42 4.42 0 01.3-1.61 4.18 4.18 0 01.9-1.37 4.38 4.38 0 011.39-.94 4.48 4.48 0 011.65-.32h2.45a5.25 5.25 0 012 .37 5.07 5.07 0 012.78 2.75 5.08 5.08 0 01.39 2v16.61a6.25 6.25 0 01-.77 2.93 6.15 6.15 0 01-2.09 2.21L49.13 49zM35 28.77h-8a1.36 1.36 0 01-1.43-1.07v-7.88h-7.66a1.44 1.44 0 01-1-.44 1.42 1.42 0 01-.4-1v-8A1.38 1.38 0 0117.91 9h7.65V1.43A1.42 1.42 0 0127 0h8a1.43 1.43 0 011.43 1.43V9H44a1.38 1.38 0 011 .41 1.34 1.34 0 01.4 1v8a1.42 1.42 0 01-1.4 1.41h-7.58v7.88a1.35 1.35 0 01-.52.8 1.36 1.36 0 01-.9.27zM28.36 26h5.25v-7.61A1.38 1.38 0 0135 17h7.58v-5.24H35a1.38 1.38 0 01-1.38-1.37V2.81h-5.26v7.58a1.37 1.37 0 01-.4 1 1.41 1.41 0 01-1 .4h-7.55V17H27a1.41 1.41 0 011 .4 1.38 1.38 0 01.4 1z"/></g></g></svg>