<svg width="286" height="56" viewBox="0 0 286 56" fill="none" xmlns="http://www.w3.org/2000/svg">
<path d="M28.5398 55.1557H25.7342V45.0077C25.7336 44.2202 25.5496 43.4436 25.1969 42.7394C24.8831 42.078 24.436 41.4887 23.8837 41.0083L11.9449 32.8899V27.6965C11.9929 27.5004 11.9929 27.2957 11.9449 27.0996C11.7488 27.0515 11.544 27.0515 11.3479 27.0996H8.30355V35.1583H5.25916V26.9205C5.25122 26.5157 5.3241 26.1134 5.47354 25.7371C5.62298 25.3608 5.84597 25.0181 6.12946 24.7291C6.41295 24.44 6.75125 24.2104 7.12456 24.0537C7.49786 23.897 7.89868 23.8163 8.30355 23.8164H11.1689C11.6678 23.8153 12.1617 23.9168 12.6198 24.1146C13.0779 24.3123 13.4905 24.6021 13.8319 24.9659C14.1733 25.3298 14.4364 25.7599 14.6047 26.2296C14.7729 26.6993 14.8429 27.1986 14.8102 27.6965V31.696L25.2566 38.7399C26.2546 39.4564 27.0712 40.3963 27.6413 41.4846C28.2114 42.5729 28.519 43.7794 28.5398 45.0077V55.1557Z" fill="black"/>
<path d="M16.5413 55.8105H13.7954V49.0054L2.8117 41.4839C1.98783 41.0511 1.28896 40.4139 0.78211 39.6334C0.224239 38.6538 -0.044814 37.5362 0.00608968 36.41V19.7554C0.00608968 18.4097 0.540668 17.1191 1.49222 16.1675C2.44378 15.216 3.73437 14.6814 5.08007 14.6814H7.58721C8.14461 14.6708 8.69806 14.7768 9.21206 14.9927C9.72606 15.2086 10.1893 15.5295 10.5719 15.935C10.9773 16.3176 11.2983 16.7808 11.5142 17.2948C11.7301 17.8088 11.8361 18.3623 11.8255 18.9197V25.2472H9.01987V18.9197C9.02753 18.7304 8.99415 18.5417 8.92202 18.3665C8.8499 18.1914 8.74073 18.0339 8.60201 17.9049C8.47562 17.7628 8.31858 17.6514 8.14277 17.579C7.96695 17.5066 7.77698 17.4751 7.58721 17.487H5.08007C4.47846 17.487 3.90149 17.726 3.47609 18.1514C3.05069 18.5768 2.8117 19.1538 2.8117 19.7554V36.41C2.80885 36.9481 2.93148 37.4795 3.16987 37.962C3.4518 38.4414 3.83978 38.8498 4.30405 39.1559L16.5413 47.513V55.8105Z" fill="black"/>
<path d="M37.1953 55.1567H34.3897V45.0087C34.3884 43.7782 34.6963 42.5672 35.2851 41.4868C35.8443 40.3898 36.6642 39.4469 37.6729 38.7408L48.1193 31.4582V27.6975C48.1181 27.2196 48.2125 26.7463 48.3971 26.3054C48.5816 25.8646 48.8525 25.4652 49.1938 25.1306C49.8771 24.4522 50.7978 24.0668 51.7606 24.0562H54.6259C55.0301 24.0615 55.4291 24.149 55.7985 24.3131C56.1679 24.4773 56.5001 24.7148 56.7749 25.0113C57.0662 25.2869 57.2965 25.6205 57.4507 25.9907C57.605 26.3609 57.6798 26.7593 57.6703 27.1602V35.1592H54.8647V26.9215H51.7606C51.5656 26.8651 51.3587 26.8651 51.1637 26.9215C51.0902 27.1137 51.0902 27.3262 51.1637 27.5184V32.9505L39.2846 41.0092C38.6458 41.4646 38.1158 42.0558 37.7326 42.7403C37.3799 43.4445 37.1959 44.2211 37.1953 45.0087V55.1567Z" fill="black"/>
<path d="M49.1341 55.813H46.3285V47.5156L58.5658 39.1584C59.0444 38.8699 59.4363 38.4574 59.7 37.9646C59.9845 37.4977 60.1294 36.9591 60.1178 36.4125V19.7579C60.182 19.1875 60.0332 18.6136 59.7 18.1462C59.2461 17.7234 58.6487 17.4887 58.0285 17.4896H55.3423C55.144 17.481 54.9461 17.5137 54.7612 17.5856C54.5762 17.6576 54.4082 17.7671 54.2678 17.9074C53.9656 18.1646 53.7733 18.5277 53.7306 18.9222V25.2498H51.104V18.9222C51.0961 18.3705 51.1976 17.8227 51.4025 17.3105C51.6074 16.7982 51.9117 16.3316 52.2979 15.9375C52.6961 15.5361 53.1706 15.2183 53.6934 15.003C54.2162 14.7877 54.7769 14.6793 55.3423 14.6839H57.7897C58.4611 14.676 59.1273 14.8015 59.7498 15.0529C60.3723 15.3044 60.9387 15.6769 61.4162 16.1488C61.8937 16.6208 62.2728 17.1828 62.5316 17.8023C62.7903 18.4218 62.9235 19.0865 62.9234 19.7579V36.4125C62.9075 37.4363 62.6411 38.4405 62.1474 39.3375C61.6533 40.2417 60.9335 41.0026 60.0581 41.5462L49.1341 49.0079V55.813Z" fill="black"/>
<path d="M34.9867 28.7725H26.9877C26.6599 28.7944 26.335 28.6981 26.0721 28.5009C25.8092 28.3038 25.6258 28.0189 25.5551 27.698V19.8184H17.9143C17.5447 19.803 17.1955 19.6452 16.9396 19.3782C16.6837 19.1112 16.541 18.7556 16.5413 18.3857V10.3867C16.5413 10.0226 16.6859 9.67339 16.9434 9.41591C17.2009 9.15843 17.5501 9.01378 17.9143 9.01378H25.5551V1.43265C25.5551 1.05269 25.706 0.688289 25.9747 0.419614C26.2434 0.15094 26.6078 0 26.9877 0H34.9867C35.3667 0 35.7311 0.15094 35.9997 0.419614C36.2684 0.688289 36.4194 1.05269 36.4194 1.43265V9.01378H44.0005C44.3646 9.01378 44.7138 9.15843 44.9713 9.41591C45.2288 9.67339 45.3734 10.0226 45.3734 10.3867V18.3857C45.3738 18.7556 45.231 19.1112 44.9751 19.3782C44.7192 19.6452 44.37 19.803 44.0005 19.8184H36.4194V27.698C36.3487 28.0189 36.1652 28.3038 35.9023 28.5009C35.6394 28.6981 35.3146 28.7944 34.9867 28.7725ZM28.3607 25.9668H33.6137V18.3857C33.6137 18.0216 33.7584 17.6724 34.0159 17.4149C34.2734 17.1574 34.6226 17.0128 34.9867 17.0128H42.5678V11.7597H34.9867C34.6226 11.7597 34.2734 11.615 34.0159 11.3576C33.7584 11.1001 33.6137 10.7509 33.6137 10.3867V2.80561H28.3607V10.3867C28.3607 10.7509 28.216 11.1001 27.9586 11.3576C27.7011 11.615 27.3519 11.7597 26.9877 11.7597H19.4066V17.0128H26.9877C27.3519 17.0128 27.7011 17.1574 27.9586 17.4149C28.216 17.6724 28.3607 18.0216 28.3607 18.3857V25.9668Z" fill="black"/>
<path d="M85.622 33.554C82.6464 33.554 79.9683 32.9318 77.5878 31.6875C75.2344 30.4161 73.3814 28.6578 72.0288 26.4125C70.6763 24.1673 70 21.6245 70 18.7841C70 15.9437 70.6763 13.4009 72.0288 11.1557C73.3814 8.91042 75.2344 7.16562 77.5878 5.92127C79.9683 4.64986 82.6464 4.01416 85.622 4.01416C88.2189 4.01416 90.5589 4.47403 92.6418 5.39377C94.7247 6.31351 96.456 7.63901 97.8356 9.37029L92.723 13.996C90.8835 11.7778 88.6518 10.6687 86.0278 10.6687C84.4859 10.6687 83.1063 11.0069 81.889 11.6832C80.6987 12.3594 79.7655 13.3198 79.0892 14.5641C78.44 15.7814 78.1153 17.1881 78.1153 18.7841C78.1153 20.3801 78.44 21.8003 79.0892 23.0446C79.7655 24.2619 80.6987 25.2087 81.889 25.885C83.1063 26.5613 84.4859 26.8994 86.0278 26.8994C88.6518 26.8994 90.8835 25.7903 92.723 23.5721L97.8356 28.1979C96.456 29.9292 94.7247 31.2547 92.6418 32.1744C90.5589 33.0941 88.2189 33.554 85.622 33.554Z" fill="#1A9BDC"/>
<path d="M110.347 10.6282C113.998 10.6282 116.785 11.4668 118.705 13.1439C120.626 14.794 121.586 17.3368 121.586 20.7723V32.9859H114.404V30.1456C113.295 32.2826 111.131 33.3511 107.912 33.3511C106.208 33.3511 104.733 33.0536 103.489 32.4584C102.245 31.8633 101.298 31.0653 100.649 30.0644C100.027 29.0365 99.7155 27.8733 99.7155 26.5748C99.7155 24.4919 100.513 22.8823 102.109 21.7462C103.706 20.583 106.167 20.0014 109.494 20.0014H113.877C113.741 17.675 112.186 16.5118 109.21 16.5118C108.155 16.5118 107.087 16.6876 106.005 17.0393C104.923 17.3639 104.003 17.8238 103.246 18.4189L100.649 13.1845C101.866 12.373 103.34 11.7508 105.072 11.318C106.83 10.8581 108.588 10.6282 110.347 10.6282ZM110.063 28.4819C110.955 28.4819 111.74 28.2655 112.416 27.8327C113.092 27.3999 113.579 26.7642 113.877 25.9256V24.0185H110.549C108.304 24.0185 107.182 24.7624 107.182 26.2502C107.182 26.9265 107.439 27.4675 107.953 27.8733C108.467 28.279 109.17 28.4819 110.063 28.4819Z" fill="#1A9BDC"/>
<path d="M133.797 13.6308C134.582 12.63 135.596 11.886 136.84 11.3991C138.112 10.8852 139.559 10.6282 141.182 10.6282V17.5668C140.479 17.4856 139.897 17.4451 139.437 17.4451C137.787 17.4451 136.489 17.8914 135.542 18.7841C134.622 19.6768 134.162 21.0429 134.162 22.8823V32.9859H126.453V10.9934H133.797V13.6308Z" fill="#1A9BDC"/>
<path d="M166.645 22.0302C166.645 22.0843 166.604 22.72 166.523 23.9373H150.536C150.86 25.0735 151.483 25.9526 152.402 26.5748C153.349 27.1699 154.526 27.4675 155.933 27.4675C156.988 27.4675 157.894 27.3187 158.651 27.0212C159.436 26.7236 160.22 26.2367 161.005 25.5604L165.062 29.7804C162.925 32.1609 159.801 33.3511 155.689 33.3511C153.119 33.3511 150.86 32.8642 148.913 31.8904C146.965 30.9165 145.45 29.564 144.368 27.8327C143.313 26.1014 142.786 24.1402 142.786 21.9491C142.786 19.785 143.3 17.8508 144.328 16.1466C145.383 14.4153 146.83 13.0628 148.669 12.0889C150.509 11.1151 152.578 10.6282 154.878 10.6282C157.069 10.6282 159.057 11.088 160.842 12.0078C162.628 12.9005 164.034 14.2124 165.062 15.9437C166.117 17.6479 166.645 19.6768 166.645 22.0302ZM154.918 16.106C153.728 16.106 152.727 16.4442 151.915 17.1204C151.131 17.7967 150.631 18.7165 150.414 19.8797H159.422C159.206 18.7165 158.692 17.7967 157.88 17.1204C157.096 16.4442 156.108 16.106 154.918 16.106Z" fill="#1A9BDC"/>
<path d="M185.977 4.21998C188.547 4.21998 190.778 4.65279 192.672 5.51843C194.565 6.35702 196.026 7.57432 197.054 9.17034C198.082 10.7393 198.596 12.5923 198.596 14.7293C198.596 16.8664 198.082 18.7194 197.054 20.2884C196.026 21.8573 194.565 23.0746 192.672 23.9403C190.778 24.7788 188.547 25.1981 185.977 25.1981H181.026V32.6237H172.992V4.21998H185.977ZM185.49 18.8682C187.14 18.8682 188.384 18.5165 189.223 17.8132C190.061 17.0828 190.481 16.0549 190.481 14.7293C190.481 13.4038 190.061 12.3759 189.223 11.6455C188.384 10.9151 187.14 10.5499 185.49 10.5499H181.026V18.8682H185.49Z" fill="#494848"/>
<path d="M213.145 32.9889C210.792 32.9889 208.668 32.5019 206.775 31.5281C204.881 30.5543 203.393 29.2017 202.311 27.4704C201.256 25.7392 200.729 23.778 200.729 21.5868C200.729 19.4227 201.256 17.475 202.311 15.7438C203.393 14.0125 204.868 12.6735 206.734 11.7267C208.628 10.7528 210.765 10.2659 213.145 10.2659C215.526 10.2659 217.663 10.7528 219.556 11.7267C221.45 12.6735 222.924 14.0125 223.979 15.7438C225.034 17.448 225.562 19.3957 225.562 21.5868C225.562 23.778 225.034 25.7392 223.979 27.4704C222.924 29.2017 221.45 30.5543 219.556 31.5281C217.663 32.5019 215.526 32.9889 213.145 32.9889ZM213.145 26.8618C214.498 26.8618 215.607 26.4019 216.473 25.4822C217.338 24.5354 217.771 23.2369 217.771 21.5868C217.771 19.9637 217.338 18.6923 216.473 17.7726C215.607 16.8529 214.498 16.393 213.145 16.393C211.793 16.393 210.684 16.8529 209.818 17.7726C208.952 18.6923 208.52 19.9637 208.52 21.5868C208.52 23.2369 208.952 24.5354 209.818 25.4822C210.684 26.4019 211.793 26.8618 213.145 26.8618Z" fill="#494848"/>
<path d="M229.133 10.6311H236.843V32.6237H229.133V10.6311ZM232.988 8.19649C231.581 8.19649 230.445 7.80425 229.58 7.01977C228.714 6.23529 228.281 5.26145 228.281 4.09825C228.281 2.93505 228.714 1.96121 229.58 1.17672C230.445 0.392241 231.581 0 232.988 0C234.395 0 235.531 0.378716 236.396 1.13615C237.262 1.86653 237.695 2.81332 237.695 3.97652C237.695 5.19382 237.262 6.20824 236.396 7.01977C235.531 7.80425 234.395 8.19649 232.988 8.19649Z" fill="#494848"/>
<path d="M256.177 10.2659C258.909 10.2659 261.1 11.0774 262.75 12.7005C264.427 14.3236 265.266 16.7717 265.266 20.0449V32.6237H257.556V21.3028C257.556 18.3001 256.352 16.7988 253.945 16.7988C252.619 16.7988 251.551 17.2316 250.739 18.0972C249.955 18.9628 249.563 20.2613 249.563 21.9926V32.6237H241.853V10.6311H249.197V13.0251C250.063 12.1324 251.091 11.4562 252.281 10.9963C253.472 10.5094 254.77 10.2659 256.177 10.2659Z" fill="#494848"/>
<path d="M285.282 31.731C284.633 32.1368 283.835 32.4478 282.888 32.6643C281.968 32.8807 280.981 32.9889 279.926 32.9889C277.058 32.9889 274.854 32.2855 273.312 30.8789C271.77 29.4722 270.999 27.3758 270.999 24.5895V17.2045H267.793V11.4426H270.999V5.72131H278.708V11.4426H283.74V17.2045H278.708V24.5083C278.708 25.2928 278.911 25.915 279.317 26.3749C279.75 26.8077 280.318 27.0241 281.021 27.0241C281.914 27.0241 282.698 26.7942 283.375 26.3343L285.282 31.731Z" fill="#494848"/>
<path d="M91.2187 49.0484C91.9373 49.2839 92.5073 49.6804 92.9286 50.2379C93.3499 50.7831 93.5605 51.4646 93.5605 52.2824C93.5605 53.41 93.1268 54.2835 92.2595 54.903C91.3921 55.5102 90.1283 55.8138 88.4679 55.8138H82V42.8035H88.0962C89.6327 42.8035 90.816 43.1071 91.6462 43.7143C92.4763 44.309 92.8914 45.133 92.8914 46.1862C92.8914 46.8305 92.7427 47.4005 92.4453 47.8961C92.148 48.3917 91.7391 48.7758 91.2187 49.0484ZM84.4162 44.6993V48.2864H87.836C88.6786 48.2864 89.3229 48.1377 89.769 47.8403C90.2274 47.5306 90.4566 47.0845 90.4566 46.5022C90.4566 45.9074 90.2274 45.4613 89.769 45.164C89.3229 44.8542 88.6786 44.6993 87.836 44.6993H84.4162ZM88.3193 53.918C90.1902 53.918 91.1257 53.2923 91.1257 52.0408C91.1257 50.7893 90.1902 50.1636 88.3193 50.1636H84.4162V53.918H88.3193Z" fill="black"/>
<path d="M111.473 53.7879V55.8138H101.715V42.8035H111.212V44.8294H104.131V48.2121H110.413V50.2008H104.131V53.7879H111.473Z" fill="black"/>
<path d="M123.775 55.9996C122.772 55.9996 121.799 55.8571 120.857 55.5721C119.928 55.2872 119.191 54.9092 118.645 54.4384L119.482 52.5612C120.015 52.9825 120.665 53.3294 121.433 53.602C122.214 53.8622 122.995 53.9923 123.775 53.9923C124.742 53.9923 125.46 53.8374 125.931 53.5277C126.414 53.2179 126.656 52.809 126.656 52.301C126.656 51.9293 126.52 51.6257 126.247 51.3903C125.987 51.1425 125.652 50.9504 125.243 50.8141C124.835 50.6778 124.277 50.5229 123.571 50.3495C122.579 50.114 121.774 49.8786 121.155 49.6432C120.547 49.4078 120.021 49.0422 119.575 48.5466C119.141 48.0386 118.924 47.3571 118.924 46.5022C118.924 45.7835 119.116 45.133 119.5 44.5506C119.897 43.9559 120.485 43.485 121.266 43.1381C122.059 42.7911 123.026 42.6177 124.165 42.6177C124.958 42.6177 125.739 42.7168 126.507 42.9151C127.276 43.1133 127.938 43.3983 128.496 43.77L127.734 45.6472C127.164 45.3127 126.569 45.0586 125.95 44.8852C125.33 44.7117 124.729 44.625 124.147 44.625C123.193 44.625 122.48 44.786 122.009 45.1082C121.551 45.4304 121.322 45.8578 121.322 46.3906C121.322 46.7624 121.452 47.0659 121.712 47.3014C121.985 47.5368 122.325 47.7226 122.734 47.8589C123.143 47.9952 123.701 48.1501 124.407 48.3236C125.374 48.5466 126.167 48.782 126.786 49.0299C127.406 49.2653 127.932 49.6308 128.366 50.1264C128.812 50.6221 129.035 51.2912 129.035 52.1337C129.035 52.8524 128.837 53.5029 128.44 54.0853C128.056 54.6676 127.468 55.1323 126.675 55.4792C125.882 55.8261 124.915 55.9996 123.775 55.9996Z" fill="black"/>
<path d="M139.464 44.848H135.152V42.8035H146.193V44.848H141.881V55.8138H139.464V44.848Z" fill="black"/>
<path d="M164.294 42.8035H169.981C171.369 42.8035 172.602 43.0761 173.68 43.6213C174.758 44.1541 175.594 44.9161 176.189 45.9074C176.784 46.8863 177.081 48.02 177.081 49.3086C177.081 50.5973 176.784 51.7372 176.189 52.7285C175.594 53.7073 174.758 54.4694 173.68 55.0146C172.602 55.5474 171.369 55.8138 169.981 55.8138H164.294V42.8035ZM169.87 53.7693C170.824 53.7693 171.66 53.5896 172.379 53.2303C173.11 52.8586 173.668 52.3382 174.052 51.6691C174.448 50.9876 174.646 50.2008 174.646 49.3086C174.646 48.4165 174.448 47.6359 174.052 46.9668C173.668 46.2853 173.11 45.7649 172.379 45.4056C171.66 45.0339 170.824 44.848 169.87 44.848H166.71V53.7693H169.87Z" fill="black"/>
<path d="M191.303 55.9996C189.977 55.9996 188.781 55.7146 187.716 55.1447C186.65 54.5623 185.814 53.7631 185.206 52.7471C184.599 51.7186 184.296 50.5725 184.296 49.3086C184.296 48.0448 184.599 46.9049 185.206 45.8888C185.814 44.8604 186.65 44.0612 187.716 43.4912C188.781 42.9089 189.977 42.6177 191.303 42.6177C192.629 42.6177 193.824 42.9089 194.89 43.4912C195.955 44.0612 196.792 44.8542 197.399 45.8702C198.006 46.8863 198.31 48.0324 198.31 49.3086C198.31 50.5849 198.006 51.731 197.399 52.7471C196.792 53.7631 195.955 54.5623 194.89 55.1447C193.824 55.7146 192.629 55.9996 191.303 55.9996ZM191.303 53.8808C192.17 53.8808 192.951 53.6888 193.645 53.3046C194.338 52.9081 194.884 52.363 195.28 51.6691C195.677 50.9628 195.875 50.176 195.875 49.3086C195.875 48.4413 195.677 47.6607 195.28 46.9668C194.884 46.2605 194.338 45.7153 193.645 45.3312C192.951 44.9347 192.17 44.7365 191.303 44.7365C190.435 44.7365 189.655 44.9347 188.961 45.3312C188.267 45.7153 187.722 46.2605 187.325 46.9668C186.929 47.6607 186.731 48.4413 186.731 49.3086C186.731 50.176 186.929 50.9628 187.325 51.6691C187.722 52.363 188.267 52.9081 188.961 53.3046C189.655 53.6888 190.435 53.8808 191.303 53.8808Z" fill="black"/>
<path d="M212.468 55.9996C211.155 55.9996 209.965 55.7146 208.9 55.1447C207.847 54.5623 207.017 53.7631 206.409 52.7471C205.815 51.731 205.517 50.5849 205.517 49.3086C205.517 48.0324 205.821 46.8863 206.428 45.8702C207.035 44.8542 207.865 44.0612 208.918 43.4912C209.984 42.9089 211.174 42.6177 212.487 42.6177C213.553 42.6177 214.525 42.8035 215.405 43.1753C216.285 43.547 217.028 44.086 217.635 44.7922L216.074 46.2605C215.132 45.2445 213.974 44.7365 212.599 44.7365C211.706 44.7365 210.907 44.9347 210.201 45.3312C209.495 45.7153 208.943 46.2543 208.547 46.9482C208.15 47.6421 207.952 48.4289 207.952 49.3086C207.952 50.1884 208.15 50.9752 208.547 51.6691C208.943 52.363 209.495 52.9081 210.201 53.3046C210.907 53.6888 211.706 53.8808 212.599 53.8808C213.974 53.8808 215.132 53.3666 216.074 52.3382L217.635 53.8251C217.028 54.5313 216.279 55.0703 215.386 55.442C214.507 55.8138 213.534 55.9996 212.468 55.9996Z" fill="black"/>
<path d="M228.02 44.848H223.708V42.8035H234.748V44.848H230.436V55.8138H228.02V44.848Z" fill="black"/>
<path d="M248.034 55.9996C246.708 55.9996 245.512 55.7146 244.447 55.1447C243.381 54.5623 242.545 53.7631 241.937 52.7471C241.33 51.7186 241.027 50.5725 241.027 49.3086C241.027 48.0448 241.33 46.9049 241.937 45.8888C242.545 44.8604 243.381 44.0612 244.447 43.4912C245.512 42.9089 246.708 42.6177 248.034 42.6177C249.359 42.6177 250.555 42.9089 251.621 43.4912C252.686 44.0612 253.523 44.8542 254.13 45.8702C254.737 46.8863 255.041 48.0324 255.041 49.3086C255.041 50.5849 254.737 51.731 254.13 52.7471C253.523 53.7631 252.686 54.5623 251.621 55.1447C250.555 55.7146 249.359 55.9996 248.034 55.9996ZM248.034 53.8808C248.901 53.8808 249.682 53.6888 250.375 53.3046C251.069 52.9081 251.615 52.363 252.011 51.6691C252.408 50.9628 252.606 50.176 252.606 49.3086C252.606 48.4413 252.408 47.6607 252.011 46.9668C251.615 46.2605 251.069 45.7153 250.375 45.3312C249.682 44.9347 248.901 44.7365 248.034 44.7365C247.166 44.7365 246.386 44.9347 245.692 45.3312C244.998 45.7153 244.453 46.2605 244.056 46.9668C243.66 47.6607 243.461 48.4413 243.461 49.3086C243.461 50.176 243.66 50.9628 244.056 51.6691C244.453 52.363 244.998 52.9081 245.692 53.3046C246.386 53.6888 247.166 53.8808 248.034 53.8808Z" fill="black"/>
<path d="M271.69 55.8138L269.032 52.0036C268.921 52.016 268.753 52.0222 268.53 52.0222H265.594V55.8138H263.177V42.8035H268.53C269.658 42.8035 270.637 42.9894 271.467 43.3611C272.309 43.7328 272.954 44.2656 273.4 44.9595C273.846 45.6534 274.069 46.4774 274.069 47.4315C274.069 48.4103 273.827 49.2529 273.344 49.9592C272.873 50.6654 272.192 51.192 271.3 51.539L274.292 55.8138H271.69ZM271.634 47.4315C271.634 46.6013 271.362 45.9632 270.816 45.5171C270.271 45.071 269.472 44.848 268.419 44.848H265.594V50.0335H268.419C269.472 50.0335 270.271 49.8105 270.816 49.3644C271.362 48.9059 271.634 48.2616 271.634 47.4315Z" fill="black"/>
</svg>
