<svg xmlns="http://www.w3.org/2000/svg" viewBox="0 0 9.67 9.03"><g id="Layer_2" data-name="Layer 2"><g id="Isolation_Mode" data-name="Isolation Mode"><path d="M3,4.6H2.23a.13.13,0,0,1-.13-.14V3.79H1.43a.13.13,0,0,1-.13-.13V2.94a.13.13,0,0,1,.13-.14H2.1V2.13A.13.13,0,0,1,2.23,2H3a.13.13,0,0,1,.14.13V2.8h.67a.13.13,0,0,1,.13.14v.72a.13.13,0,0,1-.13.13H3.09v.67A.14.14,0,0,1,3,4.6Zm-.58-.27h.45V3.66A.13.13,0,0,1,3,3.52h.68V3.07H3a.13.13,0,0,1-.13-.13V2.27H2.37v.67a.13.13,0,0,1-.14.13H1.57v.45h.66a.14.14,0,0,1,.14.14Z"/><path d="M9.49,6.7H.18A.18.18,0,0,1,0,6.52V1.19A.18.18,0,0,1,.18,1H7.37a.18.18,0,0,1,.15.08l2.11,3a.14.14,0,0,1,0,.1V6.52A.18.18,0,0,1,9.49,6.7ZM.36,6.35h9V4.22l-2-2.85H.36Z"/><path d="M6.07,1.37h-1a.18.18,0,0,1-.18-.18v-1A.18.18,0,0,1,5.06,0h1a.18.18,0,0,1,.18.18v1A.18.18,0,0,1,6.07,1.37ZM5.24,1h.65V.36H5.24Z"/><path d="M8.44,4.25H5.78a.18.18,0,0,1-.18-.18v-2a.18.18,0,0,1,.18-.18H7A.17.17,0,0,1,7.13,2l1.42,2a.19.19,0,0,1,.07.14A.18.18,0,0,1,8.44,4.25ZM6,3.89H8.08L6.9,2.26H6Z"/><path d="M9.35,5.06H8.86a.13.13,0,0,1,0-.26h.49a.13.13,0,1,1,0,.26Z"/><path d="M9.35,5.63H8.86a.13.13,0,0,1-.13-.13.13.13,0,0,1,.13-.14h.49a.14.14,0,0,1,.14.14A.13.13,0,0,1,9.35,5.63Z"/><path d="M5,6.61a.18.18,0,0,1-.18-.18V2.08a.18.18,0,0,1,.36,0V6.43A.18.18,0,0,1,5,6.61Z"/><path d="M5,5.33H.26A.13.13,0,0,1,.13,5.2a.13.13,0,0,1,.13-.14H5a.14.14,0,0,1,.14.14A.13.13,0,0,1,5,5.33Z"/><path d="M2,9A1.23,1.23,0,1,1,3.26,7.81,1.22,1.22,0,0,1,2,9ZM2,6.94a.87.87,0,1,0,.86.87A.86.86,0,0,0,2,6.94Z"/><path d="M7.39,9A1.23,1.23,0,1,1,8.61,7.81,1.22,1.22,0,0,1,7.39,9Zm0-2.09a.87.87,0,1,0,.86.87A.87.87,0,0,0,7.39,6.94Z"/><path d="M6.39,5.16H6a.35.35,0,1,1,0-.69h.4a.35.35,0,0,1,0,.69Z"/></g></g></svg>