<svg xmlns="http://www.w3.org/2000/svg" viewBox="0 0 8.42 9.04"><g id="Layer_2" data-name="Layer 2"><g id="Isolation_Mode" data-name="Isolation Mode"><path d="M4.34,9c-1.11,0-2-2-2-4.52S3.23,0,4.34,0s2,2,2,4.52S5.46,9,4.34,9Zm0-8.68C3.55.36,2.71,2,2.71,4.52s.84,4.16,1.63,4.16S6,7,6,4.52,5.13.36,4.34.36Z"/><path d="M6.85,7.33A7.68,7.68,0,0,1,3.38,6.26a8.44,8.44,0,0,1-2.48-2C.3,3.5.12,2.81.39,2.33a1.51,1.51,0,0,1,1.44-.62A7.75,7.75,0,0,1,5.31,2.78a8.71,8.71,0,0,1,2.48,2c.59.76.77,1.45.5,1.94A1.53,1.53,0,0,1,6.85,7.33Zm-5-5.27A1.24,1.24,0,0,0,.7,2.5c-.19.35,0,.91.48,1.54a7.94,7.94,0,0,0,2.37,1.9,7.4,7.4,0,0,0,3.3,1A1.24,1.24,0,0,0,8,6.54C8.17,6.19,8,5.63,7.5,5A8,8,0,0,0,5.13,3.1,7.4,7.4,0,0,0,1.83,2.06Z"/><path d="M1.83,7.33A1.54,1.54,0,0,1,.38,6.7C.11,6.21.29,5.53.9,4.77a8.27,8.27,0,0,1,2.48-2A7.68,7.68,0,0,1,6.85,1.71a1.54,1.54,0,0,1,1.45.63c.27.49.09,1.17-.51,1.93a8.45,8.45,0,0,1-2.49,2A7.68,7.68,0,0,1,1.83,7.33Zm5-5.26a7.44,7.44,0,0,0-3.3,1A8.1,8.1,0,0,0,1.18,5C.68,5.62.5,6.18.7,6.53S1.26,7,1.83,7a7.44,7.44,0,0,0,3.3-1,8.29,8.29,0,0,0,2.38-1.9C8,3.42,8.18,2.86,8,2.51S7.43,2.07,6.85,2.07Z"/><path d="M4.34,5.24a.72.72,0,1,1,.72-.72A.72.72,0,0,1,4.34,5.24Zm0-1.08a.36.36,0,1,0,.36.36A.36.36,0,0,0,4.34,4.16Z"/><path d="M6,8.07a.53.53,0,0,1-.53.53.53.53,0,0,1-.53-.53.52.52,0,0,1,.53-.53A.53.53,0,0,1,6,8.07Z"/><path d="M1.06,3.75a.53.53,0,0,1-.53.53.53.53,0,0,1,0-1.06A.53.53,0,0,1,1.06,3.75Z"/><path d="M7.57,1.88A.53.53,0,1,1,7,1.35.54.54,0,0,1,7.57,1.88Z"/></g></g></svg>