<svg xmlns="http://www.w3.org/2000/svg" viewBox="0 0 10.73 7.75"><g id="Layer_2" data-name="Layer 2"><g id="Isolation_Mode" data-name="Isolation Mode"><path d="M9.83,6.46H4L.15,5.05A.23.23,0,0,1,0,4.84V4.06a.22.22,0,0,1,.22-.23H3.13L4.31,2.06a1.61,1.61,0,0,1,.6-.53,1.65,1.65,0,0,1,.78-.2H7.8A1.89,1.89,0,0,1,9.53,2.49l.74,1.77a2.15,2.15,0,0,1,.16.43,1.86,1.86,0,0,1,.06.48V5.8a.67.67,0,0,1-.19.47A.68.68,0,0,1,9.83,6.46ZM4.13,6h5.7a.24.24,0,0,0,.22-.22V5.17A1.5,1.5,0,0,0,10,4.8a1.35,1.35,0,0,0-.14-.35L9.11,2.66A1.41,1.41,0,0,0,7.8,1.78H5.69a1.26,1.26,0,0,0-.57.14,1.24,1.24,0,0,0-.43.39L3.43,4.18a.22.22,0,0,1-.18.1H.45v.4Z"/><path d="M1.52,4.26H.22A.22.22,0,0,1,0,4V2.69a.22.22,0,0,1,.22-.22H.86a.24.24,0,0,1,.2.12l.63,1.29A.28.28,0,0,1,1.75,4,.22.22,0,0,1,1.52,4.26ZM.45,3.81h.7L.72,2.92H.45Z"/><path d="M9.78,7.75H3.05a.22.22,0,0,1-.22-.22.22.22,0,0,1,.22-.23H9.78A.58.58,0,0,0,10.3,7a.23.23,0,0,1,.29-.13.23.23,0,0,1,.13.29A1,1,0,0,1,9.78,7.75Z"/><path d="M7,1.57a.13.13,0,0,1-.13-.13V.57a.31.31,0,0,0-.31-.3.3.3,0,0,0-.3.3v.87a.13.13,0,0,1-.14.13.13.13,0,0,1-.13-.13V.57A.58.58,0,0,1,6.51,0a.57.57,0,0,1,.57.57v.87A.13.13,0,0,1,7,1.57Z"/><path d="M9.13,4.16H7.36A.13.13,0,0,1,7.24,4V2.47a.12.12,0,0,1,.12-.12h.36a1.33,1.33,0,0,1,.63.15,1.19,1.19,0,0,1,.43.4L9.24,4a.14.14,0,0,1,0,.11A.12.12,0,0,1,9.13,4.16ZM7.49,3.91H8.94L8.57,3a1,1,0,0,0-.33-.3,1.11,1.11,0,0,0-.52-.13H7.49Z"/><path d="M7.59,1.22c-.71,0-.75,0-.75-.16V.64A.12.12,0,0,1,7,.51L9.36.28a.14.14,0,0,1,.1,0,.11.11,0,0,1,0,.09v.65a.14.14,0,0,1-.13.14ZM7.11.94h.48l1.65,0V.56L7.11.76Z"/><path d="M5.45,1.22l-1.78,0a.15.15,0,0,1-.13-.14V.41a.15.15,0,0,1,0-.09.15.15,0,0,1,.11,0l2.4.23a.13.13,0,0,1,.12.13v.42C6.21,1.22,6.16,1.22,5.45,1.22ZM3.81.93,5.45,1h.49V.76L3.81.56Z"/><path d="M4.92,7.58a.18.18,0,0,1-.18-.18V6.27a.18.18,0,0,1,.36,0V7.4A.18.18,0,0,1,4.92,7.58Z"/><path d="M8.9,7.58a.18.18,0,0,1-.18-.18V6.27a.18.18,0,0,1,.36,0V7.4A.18.18,0,0,1,8.9,7.58Z"/><path d="M6.66,6.23a.09.09,0,0,1-.09-.09V2.47a.09.09,0,0,1,.18,0V6.14A.09.09,0,0,1,6.66,6.23Z"/><path d="M8.09,4.73H7.46a.11.11,0,0,1-.11-.12.11.11,0,0,1,.11-.11h.63a.11.11,0,0,1,.11.11A.11.11,0,0,1,8.09,4.73Z"/></g></g></svg>