<svg xmlns="http://www.w3.org/2000/svg" viewBox="0 0 10.03 9.46"><g id="Layer_2" data-name="Layer 2"><g id="Isolation_Mode" data-name="Isolation Mode"><path d="M6.72,8.89a.14.14,0,0,1-.11-.06L4.88,6.49a.14.14,0,1,1,.22-.16L6.83,8.67a.14.14,0,0,1,0,.19Z"/><path d="M5.28,9.46a2.69,2.69,0,0,1-.4,0,2.63,2.63,0,0,1-1.71-1L.51,4.8A2.63,2.63,0,0,1,0,2.86a2.57,2.57,0,0,1,1-1.71L1.35.93A.6.6,0,0,1,1.82.82a.58.58,0,0,1,.41.25L3.39,2.64a.74.74,0,0,1,.15.52.73.73,0,0,1-.25.48L2.84,4,4.58,6.4l.51-.32A.76.76,0,0,1,5.62,6a.71.71,0,0,1,.46.29L7.24,7.85a.6.6,0,0,1,.12.47.64.64,0,0,1-.25.41L6.82,9A2.61,2.61,0,0,1,5.28,9.46ZM1.74,1.25a.17.17,0,0,0-.13,0l-.29.21A2.15,2.15,0,0,0,.46,2.92a2.22,2.22,0,0,0,.4,1.62l2.66,3.6A2.16,2.16,0,0,0,5,9a2.1,2.1,0,0,0,1.61-.4l.29-.21a.22.22,0,0,0,.08-.13.18.18,0,0,0,0-.14L5.73,6.54a.25.25,0,0,0-.19-.12.29.29,0,0,0-.22,0l-.68.41a.22.22,0,0,1-.29,0l-2-2.68a.22.22,0,0,1,0-.3L3,3.31a.3.3,0,0,0,.1-.2A.31.31,0,0,0,3,2.89L1.88,1.33a.18.18,0,0,0-.13-.08Z"/><path d="M2.94,3.78a.14.14,0,0,1-.11-.06L1.11,1.38a.13.13,0,0,1,0-.19.13.13,0,0,1,.18,0L3.05,3.56a.14.14,0,0,1,0,.19A.11.11,0,0,1,2.94,3.78Z"/><path d="M6.89,6.37l-.08,0a.18.18,0,0,1-.1-.19l.13-.87A2.72,2.72,0,0,1,4.27,2.66,2.78,2.78,0,0,1,7.15,0,2.78,2.78,0,0,1,10,2.66,2.68,2.68,0,0,1,8,5.17L7,6.31A.19.19,0,0,1,6.89,6.37Zm.26-6a2.42,2.42,0,0,0-2.52,2.3A2.39,2.39,0,0,0,7.06,4.94.21.21,0,0,1,7.19,5a.18.18,0,0,1,0,.14l-.08.47.66-.73a.19.19,0,0,1,.09,0A2.31,2.31,0,0,0,9.67,2.66,2.42,2.42,0,0,0,7.15.36Z"/><path d="M7.59,4.35H6.7a.18.18,0,0,1-.17-.18V3.36H5.71a.18.18,0,0,1-.18-.18V2.29a.18.18,0,0,1,.18-.18h.82V1.3a.18.18,0,0,1,.17-.18h.89a.18.18,0,0,1,.18.18v.81h.81a.18.18,0,0,1,.18.18v.89a.18.18,0,0,1-.18.18H7.77v.81A.18.18,0,0,1,7.59,4.35ZM6.88,4h.53V3.18A.18.18,0,0,1,7.59,3H8.4V2.47H7.59a.18.18,0,0,1-.18-.18V1.48H6.88v.81a.18.18,0,0,1-.18.18H5.89V3H6.7a.18.18,0,0,1,.18.18Z"/></g></g></svg>