<svg xmlns="http://www.w3.org/2000/svg" viewBox="0 0 9.91 8.85"><g id="Layer_2" data-name="Layer 2"><g id="Isolation_Mode" data-name="Isolation Mode"><path d="M4.81,8.85l-.09,0A10.35,10.35,0,0,1,.2,3.69a2.63,2.63,0,0,1,.25-2.5A2.8,2.8,0,0,1,2.71,0,2.85,2.85,0,0,1,4.86,1,3,3,0,0,1,7.07,0a2.87,2.87,0,0,1,2.4,1.37,2.77,2.77,0,0,1,.15,2.73A9.53,9.53,0,0,1,4.91,8.82ZM2.71.45a2.33,2.33,0,0,0-1.89,1,2.23,2.23,0,0,0-.2,2.09A10.11,10.11,0,0,0,4.84,8.36,9.34,9.34,0,0,0,9.22,3.92a2.33,2.33,0,0,0-.13-2.3,2.44,2.44,0,0,0-2-1.17A2.72,2.72,0,0,0,5,1.52l-.18.22-.16-.23A2.5,2.5,0,0,0,2.71.45Z"/><polygon points="5.2 6.66 3.64 2.81 2.71 4.72 0.85 4.72 0.85 4.37 2.48 4.37 3.67 1.93 5.2 5.72 6.36 2.96 7.14 4.37 9.29 4.37 9.29 4.72 6.93 4.72 6.4 3.78 5.2 6.66"/></g></g></svg>