<svg xmlns="http://www.w3.org/2000/svg" viewBox="0 0 52 54"><defs><style>.cls-1{fill:#424242;}</style></defs><g id="Layer_2" data-name="Layer 2"><g id="icons"><path class="cls-1" d="M25.25,41.67A1,1,0,0,0,26,42a.92.92,0,0,0,.75-.34c.35-.39,8.48-9.7,13-20a15,15,0,0,0,1.48-6.5,15.26,15.26,0,0,0-30.51,0,15,15,0,0,0,1.45,6.47C16.65,32,24.9,41.27,25.25,41.67ZM26,2A13.22,13.22,0,0,1,39.2,15.17a13,13,0,0,1-1.3,5.67C34.3,29.08,28.12,36.89,26,39.46c-2.15-2.56-8.42-10.38-12-18.65a13,13,0,0,1-1.27-5.64A13.23,13.23,0,0,1,26,2Z"/><path class="cls-1" d="M26,22.23A7.24,7.24,0,1,0,18.71,15,7.24,7.24,0,0,0,26,22.23ZM26,9.76A5.24,5.24,0,1,1,20.71,15,5.25,5.25,0,0,1,26,9.76Z"/><path class="cls-1" d="M52,52.75l-6-23a1,1,0,0,0-.6-.68l-5-2-.74,1.86,4.53,1.81,5.32,20.38-10-5a1,1,0,0,0-.87,0L26,51.9,13.42,46.09a1,1,0,0,0-.87,0l-10,5L7.84,30.74l4.53-1.81-.74-1.86-5,2a1,1,0,0,0-.6.68l-6,23a1,1,0,0,0,.34,1,1,1,0,0,0,1.08.11L13,48.11l12.56,5.8a1,1,0,0,0,.84,0L39,48.11l11.57,5.78A.91.91,0,0,0,51,54a1,1,0,0,0,.63-.22A1,1,0,0,0,52,52.75Z"/></g></g></svg>