<svg xmlns="http://www.w3.org/2000/svg" viewBox="0 0 10.12 8.98"><g id="Layer_2" data-name="Layer 2"><g id="Isolation_Mode" data-name="Isolation Mode"><path d="M4.59,8.87H4.14V7.24a.74.74,0,0,0-.09-.36.81.81,0,0,0-.24-.28L1.93,5.29V4.42a.13.13,0,0,0,0-.1.18.18,0,0,0-.1,0H1.33l0,0V5.65H.84V4.32A.45.45,0,0,1,1,4a.45.45,0,0,1,.34-.15h.46a.58.58,0,0,1,.59.59v.64L4.06,6.23a1.17,1.17,0,0,1,.39.44,1.26,1.26,0,0,1,.14.57Z"/><path d="M2.66,9H2.22V7.88L.45,6.67a1,1,0,0,1-.33-.34A1,1,0,0,1,0,5.86V3.18A.83.83,0,0,1,.24,2.6a.84.84,0,0,1,.58-.24h.4A.68.68,0,0,1,1.9,3v1H1.46V3a.24.24,0,0,0-.24-.23H.82a.38.38,0,0,0-.37.37V5.86a.54.54,0,0,0,.06.25.66.66,0,0,0,.18.19l2,1.35Z"/><path d="M6,8.87H5.53V7.24a1.26,1.26,0,0,1,.14-.57,1.36,1.36,0,0,1,.39-.44L7.74,5.06V4.42A.58.58,0,0,1,7.92,4a.57.57,0,0,1,.41-.17h.46A.49.49,0,0,1,9.14,4a.48.48,0,0,1,.14.34V5.65H8.83V4.32l0,0H8.33a.14.14,0,0,0-.14.14v.87L6.32,6.6A.78.78,0,0,0,6,7.24Z"/><path d="M7.9,9H7.46V7.65l2-1.35a.5.5,0,0,0,.19-.19.54.54,0,0,0,.06-.25V3.18a.35.35,0,0,0-.1-.26.39.39,0,0,0-.27-.11H8.9A.24.24,0,0,0,8.67,3v1H8.22V3a.68.68,0,0,1,.68-.68h.4a.83.83,0,0,1,.58.24.78.78,0,0,1,.24.58V5.86a.93.93,0,0,1-.12.46,1,1,0,0,1-.33.36L7.9,7.88Z"/><path d="M5.63,4.63H4.34a.22.22,0,0,1-.22-.23V3.18H2.9A.22.22,0,0,1,2.67,3V1.67a.23.23,0,0,1,.23-.23H4.12V.22A.22.22,0,0,1,4.34,0H5.63a.22.22,0,0,1,.23.22V1.44H7.08a.22.22,0,0,1,.22.23V3a.22.22,0,0,1-.22.22H5.86V4.4A.23.23,0,0,1,5.63,4.63ZM4.56,4.18h.85V3a.22.22,0,0,1,.22-.22H6.85V1.89H5.63a.22.22,0,0,1-.22-.22V.45H4.56V1.67a.22.22,0,0,1-.22.22H3.12v.85H4.34A.22.22,0,0,1,4.56,3Z"/></g></g></svg>