<svg xmlns="http://www.w3.org/2000/svg" viewBox="0 0 10.63 9.23"><g id="Layer_2" data-name="Layer 2"><g id="Isolation_Mode" data-name="Isolation Mode"><path d="M.81,9.23A.69.69,0,0,1,.3,9,1.26,1.26,0,0,1,0,8.08V7.7c0-1.28-.07-3,2.39-5.45a2.4,2.4,0,0,1,1.27-.71c.27,0,.7.14.7,1.09v4s.13,1.26-.72,1.51a3.61,3.61,0,0,1-.53.12A2.66,2.66,0,0,0,2,8.73,2.72,2.72,0,0,1,.81,9.23ZM3.67,2a2,2,0,0,0-1,.59C.37,4.84.4,6.49.43,7.69c0,.14,0,.27,0,.39,0,.41.08.58.16.65a.28.28,0,0,0,.21.08,2.26,2.26,0,0,0,1-.43A2.91,2.91,0,0,1,3,7.8l.5-.12C4,7.53,4,6.62,4,6.61v-4C4,2.19,3.86,2,3.67,2Z"/><path d="M9.83,9.23h0a2.6,2.6,0,0,1-1.21-.49,2.69,2.69,0,0,0-1.11-.53A3.92,3.92,0,0,1,7,8.09c-.84-.25-.72-1.48-.72-1.53V2.63c0-.95.44-1.09.7-1.09a2.44,2.44,0,0,1,1.28.71c2.46,2.41,2.42,4.17,2.39,5.45,0,.13,0,.26,0,.38a1.3,1.3,0,0,1-.28.95A.71.71,0,0,1,9.83,9.23ZM7,2c-.18,0-.27.23-.27.67v4s-.09,1,.41,1.1l.49.12a2.74,2.74,0,0,1,1.24.57,2.38,2.38,0,0,0,1,.44h0A.28.28,0,0,0,10,8.73a.91.91,0,0,0,.16-.65V7.69c0-1.2.07-2.85-2.26-5.14A2,2,0,0,0,7,2Z"/><path d="M6.37,3.55h0s-.84-.27-.84-1V.36H5.06V2.59c0,.68-.8.94-.84,1A.17.17,0,0,1,4,3.42a.18.18,0,0,1,.11-.22S4.7,3,4.7,2.59V.18A.18.18,0,0,1,4.88,0h.78a.18.18,0,0,1,.18.18V2.59c0,.42.58.61.59.61a.18.18,0,0,1,.11.22A.17.17,0,0,1,6.37,3.55Z"/><path d="M4.16,4.53A.17.17,0,0,1,4,4.38a.18.18,0,0,1,.13-.21h0a1.71,1.71,0,0,0,1-.75.16.16,0,0,1,.15-.07.18.18,0,0,1,.15.08c.12.21.54.73,1,.73a.18.18,0,1,1,0,.36,1.58,1.58,0,0,1-1.13-.69,2,2,0,0,1-1,.69Z"/><path d="M5.66,1.16H4.88A.13.13,0,0,1,4.75,1,.13.13,0,0,1,4.88.89h.78A.13.13,0,0,1,5.79,1,.13.13,0,0,1,5.66,1.16Z"/><path d="M5.66,1.84H4.88a.13.13,0,0,1-.13-.13.13.13,0,0,1,.13-.14h.78a.13.13,0,0,1,.13.14A.13.13,0,0,1,5.66,1.84Z"/><path d="M5.66,2.51H4.88a.13.13,0,0,1,0-.26h.78a.13.13,0,0,1,0,.26Z"/></g></g></svg>