<svg xmlns="http://www.w3.org/2000/svg" viewBox="0 0 54 42"><defs><style>.cls-1{fill:#424242;}</style></defs><g id="Layer_2" data-name="Layer 2"><g id="icons"><path class="cls-1" d="M49,0H5A5,5,0,0,0,0,5V37a5,5,0,0,0,5,5H49a5,5,0,0,0,5-5V5A5,5,0,0,0,49,0Zm3,37a3,3,0,0,1-3,3H5a3,3,0,0,1-3-3V5A3,3,0,0,1,5,2H49a3,3,0,0,1,3,3Z"/><path class="cls-1" d="M48.35,4.24l-19,16.39a3.79,3.79,0,0,1-4.74,0L5.65,4.24a1,1,0,0,0-1.3,1.52l19,16.38a5.79,5.79,0,0,0,7.36,0l19-16.38a1,1,0,0,0-1.3-1.52Z"/></g></g></svg>