<svg xmlns="http://www.w3.org/2000/svg" viewBox="0 0 8.9 9.16"><g id="Layer_2" data-name="Layer 2"><g id="Isolation_Mode" data-name="Isolation Mode"><path d="M5.63,9.16H3.26A.22.22,0,0,1,3,8.93V7.34l-1.29.93a.23.23,0,0,1-.32,0L0,6.3a.23.23,0,0,1,0-.16A.24.24,0,0,1,.09,6L2,4.58.09,3.17A.24.24,0,0,1,0,3a.25.25,0,0,1,0-.17L1.43.93A.23.23,0,0,1,1.74.88L3,1.82V.22A.22.22,0,0,1,3.26,0H5.63a.22.22,0,0,1,.23.22v1.6L7.15.88a.33.33,0,0,1,.17,0,.23.23,0,0,1,.14.09L8.85,2.85a.22.22,0,0,1,0,.32l-2,1.41L8.8,6a.24.24,0,0,1,.09.15.19.19,0,0,1,0,.16L7.46,8.22a.21.21,0,0,1-.31,0L5.86,7.34V8.93A.23.23,0,0,1,5.63,9.16ZM3.49,8.71H5.41V6.9a.24.24,0,0,1,.12-.2.21.21,0,0,1,.23,0L7.23,7.78,8.36,6.22l-2-1.46a.22.22,0,0,1,0-.36l2-1.46L7.23,1.38,5.76,2.44a.21.21,0,0,1-.23,0,.24.24,0,0,1-.12-.2V.45H3.49V2.26a.23.23,0,0,1-.13.2.21.21,0,0,1-.23,0L1.66,1.38.54,2.94l2,1.46a.22.22,0,0,1,0,.36l-2,1.46L1.66,7.78,3.13,6.72a.21.21,0,0,1,.23,0,.23.23,0,0,1,.13.2Z"/><path d="M4.45,7.59a.14.14,0,0,1-.14-.14v-5a.13.13,0,0,1,.14-.13.13.13,0,0,1,.13.13v5A.13.13,0,0,1,4.45,7.59Z"/><path d="M4.45,7.16h0a.65.65,0,0,1-.47-.52.46.46,0,0,1,.35-.58l0,0,.1,0c.1,0,.26-.1.29-.17a.17.17,0,0,0,0-.08,1,1,0,0,0-.34-.2.93.93,0,0,1-.44-.28.38.38,0,0,1-.06-.35c.08-.23.39-.32.63-.39l0,0c.16,0,.26-.13.27-.18s0-.08-.14-.15a1.41,1.41,0,0,0-.21-.1c-.35-.17-.84-.4-.78-.74A.42.42,0,0,1,3.91,3a1.21,1.21,0,0,1,.92,0,.14.14,0,0,1,.07.18.13.13,0,0,1-.18.06,1,1,0,0,0-.68,0,.17.17,0,0,0-.1.13c0,.14.46.37.64.45l.23.12c.24.15.28.31.26.42s-.19.32-.45.4h0c-.16.05-.42.13-.46.23a.16.16,0,0,0,0,.12.93.93,0,0,0,.31.18.93.93,0,0,1,.48.32.4.4,0,0,1,0,.3c-.07.18-.29.26-.45.32l-.08,0-.06,0c-.17.07-.21.09-.19.3s.14.23.31.3a.14.14,0,0,1,.07.18A.13.13,0,0,1,4.45,7.16Z"/><path d="M5,3.47a.28.28,0,0,1-.37,0,.27.27,0,0,1-.1-.35.26.26,0,0,1,.37,0A.28.28,0,0,1,5,3.47Z"/></g></g></svg>