<svg xmlns="http://www.w3.org/2000/svg" viewBox="0 0 7.96 9.91"><g id="Layer_2" data-name="Layer 2"><g id="Isolation_Mode" data-name="Isolation Mode"><path d="M4.9,7.81H.66c-.05,0-.1-.06-.1-.14v-.5c0-.08,0-.14.1-.14H4.9c.06,0,.1.06.1.14v.5C5,7.75,5,7.81,4.9,7.81ZM.76,7.54h4V7.3h-4Z"/><path d="M7.78,9.91H.18A.18.18,0,0,1,0,9.73v-1a.18.18,0,0,1,.18-.18h7.6A.18.18,0,0,1,8,8.73v1A.18.18,0,0,1,7.78,9.91ZM.36,9.55H7.6V8.91H.36Z"/><path d="M7.68,8.91h0l-3.46,0a.23.23,0,0,1-.17-.11.21.21,0,0,1,0-.19,4.53,4.53,0,0,0,1.1-2.83,2.77,2.77,0,0,0-1-1.9.17.17,0,0,1,0-.23l.6-.93a.18.18,0,0,1,.19-.08c.61.14,3.62,1.08,2.94,6.13A.18.18,0,0,1,7.68,8.91ZM4.59,8.53l2.94,0C8.05,4.21,5.7,3.21,5,3l-.44.7a3,3,0,0,1,1,2A4.56,4.56,0,0,1,4.59,8.53Z"/><path d="M5,1.27H5L3.51.86A.1.1,0,0,1,3.43.79a.12.12,0,0,1,0-.1L3.58.1A.16.16,0,0,1,3.75,0L5.19.41a.14.14,0,0,1,.09.17l-.16.59a.11.11,0,0,1-.07.08A.07.07,0,0,1,5,1.27ZM3.71.64,4.9,1,5,.63,3.8.3Z"/><path d="M4,5.21H4l-1.78-.5a.31.31,0,0,1-.11-.09.15.15,0,0,1,0-.13L3,1.23a.17.17,0,0,1,.22-.12L5,1.61a.18.18,0,0,1,.13.22L4.19,5.08a.14.14,0,0,1-.09.11A.11.11,0,0,1,4,5.21Zm-1.56-.8,1.43.4L4.71,1.9,3.28,1.5Z"/><path d="M5.21,2h0L2.88,1.3a.14.14,0,0,1-.09-.17L3,.56A.16.16,0,0,1,3,.48a.12.12,0,0,1,.1,0l2.29.65a.13.13,0,0,1,.1.16l-.16.57a.11.11,0,0,1-.07.08ZM3.08,1.08l2,.57.09-.31-2-.58Z"/><path d="M4.2,5.81h0L1.78,5.13a.12.12,0,0,1-.08-.06.12.12,0,0,1,0-.1l.14-.52A.14.14,0,0,1,2,4.36L4.39,5a.13.13,0,0,1,.09.17l-.15.51a.1.1,0,0,1-.06.08A.08.08,0,0,1,4.2,5.81ZM2,4.91l2.13.6.07-.26-2.13-.6Z"/><path d="M3.36,6.22h0l-1-.29a.13.13,0,0,1-.08-.07.16.16,0,0,1,0-.1l.15-.52a.13.13,0,0,1,.16-.09l1,.3a.13.13,0,0,1,.09.16l-.14.52a.14.14,0,0,1-.07.08ZM2.48,5.7l.78.22.08-.26-.79-.22Z"/><path d="M4.38,4H4.31A.9.9,0,0,1,3.46,3a.88.88,0,0,1,.89-.85h0a.89.89,0,0,1,.85.93A.78.78,0,0,1,4.38,4Zm0-1.51A.62.62,0,1,0,4.32,3.7h.06c.41,0,.57-.17.59-.6a.62.62,0,0,0-.59-.64Z"/><path d="M5,3.11a.69.69,0,1,1-.66-.72A.68.68,0,0,1,5,3.11Z"/></g></g></svg>