<svg xmlns="http://www.w3.org/2000/svg" viewBox="0 0 7.28 12.08"><g id="Layer_2" data-name="Layer 2"><g id="Isolation_Mode" data-name="Isolation Mode"><path d="M6.84,8.64a.22.22,0,0,1-.22-.22V4.2c0-.08-.06-1.95-3.13-1.95C.93,2.25.74,4.14.73,4.22V8.37a.22.22,0,0,1-.22.22.22.22,0,0,1-.23-.22V4.2S.52,1.8,3.49,1.8C7,1.8,7.06,4.17,7.06,4.2V8.42A.22.22,0,0,1,6.84,8.64Z"/><path d="M6.79,12.08H.49A.23.23,0,0,1,.28,12,3.15,3.15,0,0,1,0,10.64,3.22,3.22,0,0,1,3.22,7.42h.83a3.23,3.23,0,0,1,3.23,3.22A3.32,3.32,0,0,1,7,12,.23.23,0,0,1,6.79,12.08ZM.64,11.64h6a2.69,2.69,0,0,0,.19-1A2.77,2.77,0,0,0,4.05,7.87H3.22A2.77,2.77,0,0,0,.45,10.64,2.69,2.69,0,0,0,.64,11.64Z"/><path d="M3.64,11.82a.19.19,0,0,1-.17-.12L2.25,7.81a.18.18,0,0,1,0-.16.2.2,0,0,1,.15-.07H5a.19.19,0,0,1,.15.08.18.18,0,0,1,0,.16L3.81,11.7A.18.18,0,0,1,3.64,11.82Zm-1-3.88,1,3.13L4.73,7.94Z"/><path d="M3.65,7.34A2.57,2.57,0,0,1,1.06,4.77a.18.18,0,0,1,.36,0A2.21,2.21,0,0,0,3.63,7a2.06,2.06,0,0,0,2.21-2,.18.18,0,1,1,.36,0A2.42,2.42,0,0,1,3.65,7.34Z"/><path d="M3.49,11.78a.18.18,0,0,1-.1,0L2.32,10.63a.14.14,0,0,1,0-.19l.36-.36L1.47,9.83a.13.13,0,0,1-.09-.07.14.14,0,0,1,0-.11l.75-1.89a.14.14,0,0,1,.18-.08.13.13,0,0,1,.07.17L1.68,9.6,3,9.87a.13.13,0,0,1,.1.09.17.17,0,0,1,0,.14l-.45.44,1,1a.14.14,0,0,1,0,.19A.18.18,0,0,1,3.49,11.78Z"/><path d="M3.82,11.78a.18.18,0,0,1-.1,0,.14.14,0,0,1,0-.19l1-1-.45-.44a.17.17,0,0,1,0-.14.15.15,0,0,1,.1-.09l1.3-.27L4.93,7.85A.14.14,0,0,1,5,7.68a.14.14,0,0,1,.18.08l.75,1.89a.11.11,0,0,1,0,.11.11.11,0,0,1-.09.07l-1.21.25.36.36a.14.14,0,0,1,0,.19L3.91,11.74A.18.18,0,0,1,3.82,11.78Z"/><path d="M6.28,11.24H5.55a.13.13,0,0,1-.14-.13v-.56a.13.13,0,0,1,.14-.13h.73a.13.13,0,0,1,.14.13v.56A.13.13,0,0,1,6.28,11.24ZM5.68,11h.47v-.28H5.68Z"/><path d="M4.66,9.15H2.81A.13.13,0,0,1,2.68,9a.13.13,0,0,1,.13-.14H4.66A.13.13,0,0,1,4.79,9,.13.13,0,0,1,4.66,9.15Z"/><path d="M5,2.6a.22.22,0,0,1-.15-.06,1.9,1.9,0,0,0-1.26-.43,2,2,0,0,0-1.26.41.25.25,0,0,1-.17,0A.24.24,0,0,1,2,2.48l-1-1.25A.26.26,0,0,1,1,1.06.23.23,0,0,1,1.1.91a3.93,3.93,0,0,1,5.05,0,.24.24,0,0,1,.09.15.24.24,0,0,1,0,.17l-1,1.26a.18.18,0,0,1-.15.08ZM3.6,1.66A2.45,2.45,0,0,1,5,2.06l.71-.9a3.41,3.41,0,0,0-4.15,0l.71.9A2.42,2.42,0,0,1,3.6,1.66Z"/><path d="M5.91,5.11h0A3.84,3.84,0,0,1,3.5,4,3.32,3.32,0,0,1,1.32,5c-.09,0-.18-.07-.19-.17a.19.19,0,0,1,.17-.19,2.92,2.92,0,0,0,2-1,.21.21,0,0,1,.14-.07c.06,0,.1,0,.14.06a3.78,3.78,0,0,0,2.3,1.18.18.18,0,0,1,.17.18A.17.17,0,0,1,5.91,5.11Z"/><path d="M2.68,5.36a.19.19,0,0,1-.19.19.2.2,0,0,1-.19-.19.19.19,0,0,1,.19-.19A.18.18,0,0,1,2.68,5.36Z"/><path d="M4.85,5.36a.2.2,0,0,1-.19.19.19.19,0,0,1-.19-.19.18.18,0,0,1,.19-.19A.19.19,0,0,1,4.85,5.36Z"/></g></g></svg>