<svg xmlns="http://www.w3.org/2000/svg" viewBox="0 0 9.03 9.26"><g id="Layer_2" data-name="Layer 2"><g id="Isolation_Mode" data-name="Isolation Mode"><path d="M3.57,6.26h-2A1.59,1.59,0,0,1,.47,5.79,1.61,1.61,0,0,1,0,4.66V1.73a.68.68,0,0,1,.68-.68h.59a.22.22,0,0,1,.22.22.22.22,0,0,1-.22.23H.68a.23.23,0,0,0-.17.07.23.23,0,0,0-.06.16V4.66a1.11,1.11,0,0,0,.34.81,1.11,1.11,0,0,0,.81.34h2a.23.23,0,1,1,0,.45Z"/><path d="M1.81,2.42a.67.67,0,0,1-.68-.67V.67a.68.68,0,0,1,1.35,0V1.75A.67.67,0,0,1,1.81,2.42Zm0-2a.22.22,0,0,0-.23.22V1.75a.23.23,0,1,0,.45,0V.67A.22.22,0,0,0,1.81.45Z"/><path d="M4.38,6.26H3.2A.22.22,0,0,1,3,6a.22.22,0,0,1,.22-.23H4.38A1.16,1.16,0,0,0,5.53,4.66V1.73a.2.2,0,0,0-.07-.16A.2.2,0,0,0,5.3,1.5H4.71a.22.22,0,0,1-.22-.23.22.22,0,0,1,.22-.22H5.3A.68.68,0,0,1,6,1.73V4.66a1.6,1.6,0,0,1-1.6,1.6Z"/><path d="M4.17,2.42a.67.67,0,0,1-.67-.67V.67a.68.68,0,0,1,1.35,0V1.75A.67.67,0,0,1,4.17,2.42Zm0-2A.22.22,0,0,0,4,.67V1.75a.23.23,0,1,0,.45,0V.67A.22.22,0,0,0,4.17.45Z"/><path d="M5,9.26H3.69A1.08,1.08,0,0,1,2.61,8.18V6a.23.23,0,1,1,.45,0V8.18a.62.62,0,0,0,.63.63H5a.44.44,0,0,0,.45-.45V7.53a.65.65,0,0,1,.65-.64h.82a.22.22,0,1,1,0,.44H6.07a.25.25,0,0,0-.14.06.2.2,0,0,0-.06.14v.83a.89.89,0,0,1-.9.9Z"/><path d="M7.9,8.1A1.12,1.12,0,1,1,9,7,1.12,1.12,0,0,1,7.9,8.1Zm0-1.89A.77.77,0,1,0,8.67,7,.77.77,0,0,0,7.9,6.21Z"/><path d="M7.9,7.46A.48.48,0,1,1,8.38,7,.48.48,0,0,1,7.9,7.46Zm0-.69A.21.21,0,0,0,7.7,7a.2.2,0,0,0,.2.21A.21.21,0,0,0,8.11,7,.21.21,0,0,0,7.9,6.77Z"/></g></g></svg>