<svg width="286" height="56" fill="none" xmlns="http://www.w3.org/2000/svg"><path d="M28.54 55.156h-2.806V45.008c0-.788-.184-1.564-.537-2.269a5.312 5.312 0 00-1.313-1.73l-11.94-8.12v-5.193c.049-.196.049-.4 0-.596a1.253 1.253 0 00-.596 0H8.304v8.058H5.259V26.92a3.044 3.044 0 013.045-3.104h2.865a3.64 3.64 0 013.641 3.88v4l10.447 7.044a7.88 7.88 0 013.283 6.268v10.148z" fill="#000"/><path d="M16.541 55.81h-2.746v-6.805L2.812 41.484a5.432 5.432 0 01-2.03-1.85 5.97 5.97 0 01-.776-3.224V19.755a5.074 5.074 0 015.074-5.074h2.507a4 4 0 012.985 1.254 4 4 0 011.254 2.985v6.327H9.02V18.92a1.314 1.314 0 00-.418-1.015 1.253 1.253 0 00-1.015-.418H5.08a2.268 2.268 0 00-2.268 2.268V36.41c-.003.538.12 1.07.358 1.552.282.48.67.888 1.134 1.194l12.237 8.357v8.297zm20.654-.653H34.39V45.009a7.343 7.343 0 01.895-3.522 7.522 7.522 0 012.388-2.746l10.446-7.283v-3.76a3.581 3.581 0 011.075-2.567 3.7 3.7 0 012.567-1.075h2.865a2.985 2.985 0 012.149.955 2.865 2.865 0 01.895 2.15v7.998h-2.805v-8.237H51.76a1.074 1.074 0 00-.597 0 .835.835 0 000 .596v5.432l-11.88 8.06a5.314 5.314 0 00-1.551 1.73 5.074 5.074 0 00-.538 2.269v10.148z" fill="#000"/><path d="M49.134 55.813h-2.806v-8.297l12.238-8.358c.478-.288.87-.7 1.134-1.193a2.87 2.87 0 00.418-1.553V19.759a2.328 2.328 0 00-.418-1.612 2.447 2.447 0 00-1.672-.656h-2.686a1.432 1.432 0 00-1.074.417 1.55 1.55 0 00-.537 1.015v6.328h-2.627v-6.328a4.178 4.178 0 011.194-2.985 4.24 4.24 0 013.044-1.253h2.448a5.075 5.075 0 015.133 5.074v16.655a6.268 6.268 0 01-.776 2.925 5.97 5.97 0 01-2.089 2.208l-10.924 7.462v6.805zm-14.147-27.04h-8a1.373 1.373 0 01-1.432-1.075v-7.88h-7.64a1.433 1.433 0 01-1.374-1.432v-8a1.373 1.373 0 011.373-1.372h7.641V1.433A1.433 1.433 0 0126.988 0h7.999a1.432 1.432 0 011.432 1.433v7.58h7.582a1.373 1.373 0 011.372 1.374v7.999a1.432 1.432 0 01-1.372 1.432h-7.582v7.88a1.373 1.373 0 01-1.432 1.075zm-6.626-2.806h5.253v-7.581a1.373 1.373 0 011.373-1.373h7.58V11.76h-7.58a1.373 1.373 0 01-1.373-1.373V2.806H28.36v7.58a1.373 1.373 0 01-1.373 1.374h-7.581v5.253h7.58a1.373 1.373 0 011.374 1.373v7.58z" fill="#000"/><path d="M85.622 33.554c-2.976 0-5.654-.622-8.034-1.867-2.354-1.27-4.207-3.03-5.56-5.274C70.677 24.167 70 21.625 70 18.784c0-2.84.676-5.383 2.029-7.628 1.352-2.246 3.205-3.99 5.559-5.235 2.38-1.271 5.058-1.907 8.034-1.907 2.597 0 4.937.46 7.02 1.38 2.083.92 3.814 2.245 5.194 3.976l-5.113 4.626c-1.84-2.218-4.071-3.327-6.695-3.327-1.542 0-2.922.338-4.139 1.014-1.19.676-2.123 1.637-2.8 2.881-.649 1.217-.974 2.624-.974 4.22 0 1.596.325 3.016.974 4.26a7.249 7.249 0 002.8 2.841c1.217.676 2.597 1.014 4.139 1.014 2.624 0 4.855-1.109 6.695-3.327l5.113 4.626c-1.38 1.731-3.111 3.057-5.194 3.976-2.083.92-4.423 1.38-7.02 1.38zm24.725-22.926c3.651 0 6.438.839 8.358 2.516 1.921 1.65 2.881 4.193 2.881 7.628v12.214h-7.182v-2.84c-1.109 2.137-3.273 3.205-6.492 3.205-1.704 0-3.179-.297-4.423-.893-1.244-.595-2.191-1.393-2.84-2.394-.622-1.027-.933-2.19-.933-3.49 0-2.082.797-3.692 2.393-4.828 1.597-1.163 4.058-1.745 7.385-1.745h4.383c-.136-2.326-1.691-3.49-4.667-3.49-1.055 0-2.123.177-3.205.528-1.082.325-2.002.785-2.759 1.38l-2.597-5.235c1.217-.811 2.691-1.433 4.423-1.866 1.758-.46 3.516-.69 5.275-.69zm-.284 17.854c.892 0 1.677-.216 2.353-.65.676-.432 1.163-1.068 1.461-1.906v-1.907h-3.328c-2.245 0-3.367.743-3.367 2.231 0 .677.257 1.218.771 1.623.514.406 1.217.609 2.11.609zm23.734-14.852c.785-1 1.799-1.744 3.043-2.23 1.272-.515 2.719-.772 4.342-.772v6.939a15.745 15.745 0 00-1.745-.122c-1.65 0-2.948.446-3.895 1.34-.92.892-1.38 2.258-1.38 4.097v10.104h-7.709V10.993h7.344v2.638zm32.848 8.4c0 .054-.041.69-.122 1.907h-15.987c.324 1.136.947 2.016 1.866 2.638.947.595 2.124.893 3.531.893 1.055 0 1.961-.15 2.718-.447.785-.297 1.569-.784 2.354-1.46l4.057 4.22c-2.137 2.38-5.261 3.57-9.373 3.57-2.57 0-4.829-.487-6.776-1.46-1.948-.974-3.463-2.327-4.545-4.058-1.055-1.732-1.582-3.693-1.582-5.884 0-2.164.514-4.098 1.542-5.802 1.055-1.732 2.502-3.084 4.341-4.058 1.84-.974 3.909-1.46 6.209-1.46 2.191 0 4.179.459 5.964 1.379a10.032 10.032 0 014.22 3.936c1.055 1.704 1.583 3.733 1.583 6.086zm-11.727-5.924c-1.19 0-2.191.338-3.003 1.014-.784.677-1.284 1.596-1.501 2.76h9.008c-.216-1.163-.73-2.083-1.542-2.76-.784-.676-1.772-1.014-2.962-1.014z" fill="#1A9BDC"/><path d="M185.977 4.22c2.57 0 4.801.433 6.695 1.298 1.893.839 3.354 2.056 4.382 3.652 1.028 1.57 1.542 3.422 1.542 5.56 0 2.136-.514 3.99-1.542 5.558-1.028 1.57-2.489 2.787-4.382 3.652-1.894.839-4.125 1.258-6.695 1.258h-4.951v7.426h-8.034V4.22h12.985zm-.487 14.648c1.65 0 2.894-.351 3.733-1.055.838-.73 1.258-1.758 1.258-3.084 0-1.325-.42-2.353-1.258-3.083-.839-.73-2.083-1.096-3.733-1.096h-4.464v8.318h4.464zm27.655 14.121c-2.353 0-4.477-.487-6.37-1.46-1.894-.975-3.382-2.327-4.464-4.059-1.055-1.73-1.582-3.692-1.582-5.883 0-2.164.527-4.112 1.582-5.843 1.082-1.732 2.557-3.07 4.423-4.017 1.894-.974 4.031-1.461 6.411-1.461 2.381 0 4.518.487 6.411 1.46 1.894.947 3.368 2.286 4.423 4.018 1.055 1.704 1.583 3.652 1.583 5.843s-.528 4.152-1.583 5.883c-1.055 1.732-2.529 3.084-4.423 4.058-1.893.974-4.03 1.46-6.411 1.46zm0-6.127c1.353 0 2.462-.46 3.328-1.38.865-.947 1.298-2.245 1.298-3.895 0-1.623-.433-2.895-1.298-3.814-.866-.92-1.975-1.38-3.328-1.38-1.352 0-2.461.46-3.327 1.38-.866.92-1.298 2.19-1.298 3.814 0 1.65.432 2.948 1.298 3.895.866.92 1.975 1.38 3.327 1.38zm15.988-16.231h7.71v21.993h-7.71V10.63zm3.855-2.435c-1.407 0-2.543-.392-3.408-1.176-.866-.785-1.299-1.759-1.299-2.922 0-1.163.433-2.137 1.299-2.921C230.445.392 231.581 0 232.988 0s2.543.379 3.408 1.136c.866.73 1.299 1.677 1.299 2.84 0 1.218-.433 2.232-1.299 3.044-.865.784-2.001 1.176-3.408 1.176zm23.189 2.07c2.732 0 4.923.811 6.573 2.434 1.677 1.624 2.516 4.072 2.516 7.345v12.579h-7.71V21.303c0-3.003-1.204-4.504-3.611-4.504-1.326 0-2.394.433-3.206 1.298-.784.866-1.176 2.164-1.176 3.896v10.63h-7.71V10.632h7.344v2.394a8.518 8.518 0 013.084-2.029c1.191-.487 2.489-.73 3.896-.73zm29.105 21.465c-.649.406-1.447.717-2.394.933-.92.217-1.907.325-2.962.325-2.868 0-5.072-.703-6.614-2.11-1.542-1.407-2.313-3.503-2.313-6.29v-7.384h-3.206v-5.762h3.206V5.72h7.709v5.722h5.032v5.761h-5.032v7.304c0 .785.203 1.407.609 1.867.433.433 1.001.65 1.704.65.893 0 1.677-.23 2.354-.69l1.907 5.396z" fill="#494848"/><path d="M91.219 49.048c.718.236 1.288.632 1.71 1.19.42.545.632 1.227.632 2.044 0 1.128-.434 2.002-1.302 2.621-.867.607-2.13.91-3.791.91H82v-13.01h6.096c1.537 0 2.72.304 3.55.911.83.595 1.245 1.419 1.245 2.472 0 .645-.148 1.215-.446 1.71-.297.496-.706.88-1.226 1.152zM84.416 44.7v3.587h3.42c.843 0 1.487-.148 1.933-.446.458-.31.688-.756.688-1.338 0-.595-.23-1.04-.688-1.338-.446-.31-1.09-.465-1.933-.465h-3.42zm3.903 9.219c1.871 0 2.807-.626 2.807-1.877 0-1.252-.936-1.877-2.807-1.877h-3.903v3.754h3.903zm23.154-.131v2.026h-9.758v-13.01h9.497v2.025h-7.081v3.383h6.282v1.989h-6.282v3.587h7.342zM123.775 56c-1.003 0-1.976-.143-2.918-.428-.929-.285-1.666-.663-2.212-1.134l.837-1.877c.533.422 1.183.768 1.951 1.041.781.26 1.562.39 2.342.39.967 0 1.685-.155 2.156-.464.483-.31.725-.719.725-1.227 0-.372-.136-.675-.409-.91a2.64 2.64 0 00-1.004-.577 22.428 22.428 0 00-1.672-.465c-.992-.235-1.797-.47-2.416-.706a4.085 4.085 0 01-1.58-1.096c-.434-.508-.651-1.19-.651-2.045 0-.719.192-1.369.576-1.951.397-.595.985-1.066 1.766-1.413.793-.347 1.76-.52 2.899-.52.793 0 1.574.099 2.342.297.769.198 1.431.483 1.989.855l-.762 1.877a7.525 7.525 0 00-1.784-.762 6.679 6.679 0 00-1.803-.26c-.954 0-1.667.161-2.138.483-.458.322-.687.75-.687 1.283 0 .371.13.675.39.91.273.236.613.422 1.022.558.409.136.967.291 1.673.465.967.223 1.76.458 2.379.706.62.235 1.146.6 1.58 1.096.446.496.669 1.165.669 2.008 0 .718-.198 1.369-.595 1.951-.384.583-.972 1.047-1.765 1.394-.793.347-1.76.52-2.9.52zm15.689-11.152h-4.312v-2.044h11.041v2.044h-4.312v10.966h-2.417V44.848zm24.83-2.045h5.687c1.388 0 2.621.273 3.699.818 1.078.533 1.914 1.295 2.509 2.286.595.98.892 2.113.892 3.402 0 1.288-.297 2.428-.892 3.42-.595.978-1.431 1.74-2.509 2.286-1.078.532-2.311.799-3.699.799h-5.687v-13.01zm5.576 10.966c.954 0 1.79-.18 2.509-.539.731-.371 1.289-.892 1.673-1.56.396-.682.594-1.47.594-2.361 0-.892-.198-1.673-.594-2.342a3.784 3.784 0 00-1.673-1.561c-.719-.372-1.555-.558-2.509-.558h-3.16v8.921h3.16zM191.303 56c-1.326 0-2.522-.285-3.587-.855a6.494 6.494 0 01-2.51-2.398c-.607-1.028-.91-2.175-.91-3.438 0-1.264.303-2.404.91-3.42a6.32 6.32 0 012.51-2.398c1.065-.582 2.261-.873 3.587-.873s2.521.29 3.587.873a6.358 6.358 0 012.509 2.38c.607 1.015.911 2.161.911 3.438 0 1.276-.304 2.422-.911 3.438a6.491 6.491 0 01-2.509 2.398c-1.066.57-2.261.855-3.587.855zm0-2.12c.867 0 1.648-.191 2.342-.575a4.32 4.32 0 001.635-1.636c.397-.706.595-1.493.595-2.36 0-.868-.198-1.648-.595-2.342a4.154 4.154 0 00-1.635-1.636c-.694-.396-1.475-.595-2.342-.595-.868 0-1.648.199-2.342.595a4.156 4.156 0 00-1.636 1.636c-.396.694-.594 1.474-.594 2.342 0 .867.198 1.654.594 2.36a4.323 4.323 0 001.636 1.636c.694.384 1.474.576 2.342.576zM212.468 56c-1.313 0-2.503-.285-3.568-.855a6.533 6.533 0 01-2.491-2.398c-.594-1.016-.892-2.162-.892-3.438 0-1.277.304-2.423.911-3.439a6.387 6.387 0 012.49-2.379c1.066-.582 2.256-.873 3.569-.873 1.066 0 2.038.185 2.918.557.88.372 1.623.911 2.23 1.617l-1.561 1.468c-.942-1.015-2.1-1.523-3.475-1.523-.893 0-1.692.198-2.398.594a4.152 4.152 0 00-1.654 1.617c-.397.694-.595 1.48-.595 2.36 0 .88.198 1.667.595 2.361a4.28 4.28 0 001.654 1.636c.706.384 1.505.576 2.398.576 1.375 0 2.533-.514 3.475-1.543l1.561 1.487a5.913 5.913 0 01-2.249 1.617c-.879.372-1.852.558-2.918.558zm15.552-11.152h-4.312v-2.044h11.04v2.044h-4.312v10.966h-2.416V44.848zM248.034 56c-1.326 0-2.522-.285-3.587-.855a6.494 6.494 0 01-2.51-2.398c-.607-1.028-.91-2.175-.91-3.438 0-1.264.303-2.404.91-3.42a6.32 6.32 0 012.51-2.398c1.065-.582 2.261-.873 3.587-.873 1.325 0 2.521.29 3.587.873a6.358 6.358 0 012.509 2.38c.607 1.015.911 2.161.911 3.438 0 1.276-.304 2.422-.911 3.438a6.491 6.491 0 01-2.509 2.398c-1.066.57-2.262.855-3.587.855zm0-2.12c.867 0 1.648-.191 2.341-.575a4.316 4.316 0 001.636-1.636c.397-.706.595-1.493.595-2.36 0-.868-.198-1.648-.595-2.342a4.15 4.15 0 00-1.636-1.636c-.693-.396-1.474-.595-2.341-.595-.868 0-1.648.199-2.342.595a4.156 4.156 0 00-1.636 1.636c-.396.694-.595 1.474-.595 2.342 0 .867.199 1.654.595 2.36a4.323 4.323 0 001.636 1.636c.694.384 1.474.576 2.342.576zm23.656 1.934l-2.658-3.81a4.949 4.949 0 01-.502.018h-2.936v3.792h-2.417v-13.01h5.353c1.128 0 2.107.185 2.937.557.842.372 1.487.905 1.933 1.599.446.693.669 1.517.669 2.471 0 .98-.242 1.822-.725 2.528-.471.706-1.152 1.233-2.044 1.58l2.992 4.275h-2.602zm-.056-8.383c0-.83-.272-1.468-.818-1.914-.545-.446-1.344-.669-2.397-.669h-2.825v5.185h2.825c1.053 0 1.852-.223 2.397-.669.546-.458.818-1.102.818-1.932z" fill="#000"/></svg>