<svg viewBox="0 0 640 512" xmlns="http://www.w3.org/2000/svg" xmlns:xlink="http://www.w3.org/1999/xlink"><style>:root&gt;svg{display:none}:root&gt;svg:target{display:block}</style><svg viewBox="0 0 9.67 9.03" id="ambulance" xmlns="http://www.w3.org/2000/svg"><g data-name="Layer 2"><g data-name="Isolation Mode"><path d="M3 4.6h-.77a.13.13 0 01-.13-.14v-.67h-.67a.13.13 0 01-.13-.13v-.72a.13.13 0 01.13-.14h.67v-.67A.13.13 0 012.23 2H3a.13.13 0 01.14.13v.67h.67a.13.13 0 01.13.14v.72a.13.13 0 01-.13.13h-.72v.67A.14.14 0 013 4.6zm-.58-.27h.45v-.67A.13.13 0 013 3.52h.68v-.45H3a.13.13 0 01-.13-.13v-.67h-.5v.67a.13.13 0 01-.14.13h-.66v.45h.66a.14.14 0 01.14.14z"/><path d="M9.49 6.7H.18A.18.18 0 010 6.52V1.19A.18.18 0 01.18 1h7.19a.18.18 0 01.15.08l2.11 3a.14.14 0 010 .1v2.34a.18.18 0 01-.14.18zM.36 6.35h9V4.22l-2-2.85h-7z"/><path d="M6.07 1.37h-1a.18.18 0 01-.18-.18v-1A.18.18 0 015.06 0h1a.18.18 0 01.18.18v1a.18.18 0 01-.17.19zM5.24 1h.65V.36h-.65zm3.2 3.25H5.78a.18.18 0 01-.18-.18v-2a.18.18 0 01.18-.18H7a.17.17 0 01.13.11l1.42 2a.19.19 0 01.07.14.18.18 0 01-.18.11zM6 3.89h2.08L6.9 2.26H6zm3.35 1.17h-.49a.13.13 0 010-.26h.49a.13.13 0 110 .26zm0 .57h-.49a.13.13 0 01-.13-.13.13.13 0 01.13-.14h.49a.14.14 0 01.14.14.13.13 0 01-.14.13zM5 6.61a.18.18 0 01-.18-.18V2.08a.18.18 0 01.36 0v4.35a.18.18 0 01-.18.18z"/><path d="M5 5.33H.26a.13.13 0 01-.13-.13.13.13 0 01.13-.14H5a.14.14 0 01.14.14.13.13 0 01-.14.13zM2 9a1.23 1.23 0 111.26-1.19A1.22 1.22 0 012 9zm0-2.06a.87.87 0 10.86.87.86.86 0 00-.86-.87zM7.39 9a1.23 1.23 0 111.22-1.19A1.22 1.22 0 017.39 9zm0-2.09a.87.87 0 10.86.87.87.87 0 00-.86-.84zm-1-1.75H6a.35.35 0 110-.69h.4a.35.35 0 010 .69z"/></g></g></svg><svg version="1.1" id="arrow-left" x="0" y="0" viewBox="0 0 21.5 41.4" xml:space="preserve" xmlns="http://www.w3.org/2000/svg"><path d="M2 20.7L21.3 1.4c.3-.3.3-.9 0-1.2-.3-.3-.9-.3-1.2 0L.2 20.1c-.3.3-.3.9 0 1.2L20 41.1c.2.2.4.2.6.2.2 0 .4-.1.6-.2.3-.3.3-.9 0-1.2L2 20.7z" fill="#bec2c7"/></svg><svg id="arrow-right" data-name="Layer 1" viewBox="0 0 21.53 41.37" xmlns="http://www.w3.org/2000/svg"><path d="M19.5 20.69L.25 39.94a.84.84 0 000 1.19.83.83 0 001.18 0l19.85-19.85a.84.84 0 000-1.19L1.43.25A.79.79 0 00.84 0a.81.81 0 00-.59.25.83.83 0 000 1.18z" fill="#bec2c7"/></svg><svg viewBox="0 0 8.42 9.04" id="atom" xmlns="http://www.w3.org/2000/svg"><g data-name="Layer 2"><g data-name="Isolation Mode"><path d="M4.34 9c-1.11 0-2-2-2-4.52S3.23 0 4.34 0s2 2 2 4.52S5.46 9 4.34 9zm0-8.68C3.55.36 2.71 2 2.71 4.52s.84 4.16 1.63 4.16S6 7 6 4.52 5.13.36 4.34.36z"/><path d="M6.85 7.33a7.68 7.68 0 01-3.47-1.07 8.44 8.44 0 01-2.48-2C.3 3.5.12 2.81.39 2.33a1.51 1.51 0 011.44-.62 7.75 7.75 0 013.48 1.07 8.71 8.71 0 012.48 2c.59.76.77 1.45.5 1.94a1.53 1.53 0 01-1.44.61zm-5-5.27A1.24 1.24 0 00.7 2.5c-.19.35 0 .91.48 1.54a7.94 7.94 0 002.37 1.9 7.4 7.4 0 003.3 1A1.24 1.24 0 008 6.54c.17-.35 0-.91-.5-1.54a8 8 0 00-2.37-1.9 7.4 7.4 0 00-3.3-1.04z"/><path d="M1.83 7.33A1.54 1.54 0 01.38 6.7C.11 6.21.29 5.53.9 4.77a8.27 8.27 0 012.48-2 7.68 7.68 0 013.47-1.06 1.54 1.54 0 011.45.63c.27.49.09 1.17-.51 1.93a8.45 8.45 0 01-2.49 2 7.68 7.68 0 01-3.47 1.06zm5-5.26a7.44 7.44 0 00-3.3 1A8.1 8.1 0 001.18 5C.68 5.62.5 6.18.7 6.53S1.26 7 1.83 7a7.44 7.44 0 003.3-1 8.29 8.29 0 002.38-1.9c.49-.68.67-1.24.49-1.59s-.57-.44-1.15-.44z"/><path d="M4.34 5.24a.72.72 0 11.72-.72.72.72 0 01-.72.72zm0-1.08a.36.36 0 10.36.36.36.36 0 00-.36-.36zM6 8.07a.53.53 0 01-.53.53.53.53 0 01-.53-.53.52.52 0 01.53-.53.53.53 0 01.53.53zM1.06 3.75a.53.53 0 01-.53.53.53.53 0 010-1.06.53.53 0 01.53.53zm6.51-1.87A.53.53 0 117 1.35a.54.54 0 01.57.53z"/></g></g></svg><svg viewBox="0 0 10.73 7.75" id="chopper" xmlns="http://www.w3.org/2000/svg"><g data-name="Layer 2"><g data-name="Isolation Mode"><path d="M9.83 6.46H4L.15 5.05A.23.23 0 010 4.84v-.78a.22.22 0 01.22-.23h2.91l1.18-1.77a1.61 1.61 0 01.6-.53 1.65 1.65 0 01.78-.2H7.8a1.89 1.89 0 011.73 1.16l.74 1.77a2.15 2.15 0 01.16.43 1.86 1.86 0 01.06.48v.63a.67.67 0 01-.19.47.68.68 0 01-.47.19zM4.13 6h5.7a.24.24 0 00.22-.22v-.61A1.5 1.5 0 0010 4.8a1.35 1.35 0 00-.14-.35l-.75-1.79a1.41 1.41 0 00-1.31-.88H5.69a1.26 1.26 0 00-.57.14 1.24 1.24 0 00-.43.39L3.43 4.18a.22.22 0 01-.18.1H.45v.4z"/><path d="M1.52 4.26H.22A.22.22 0 010 4V2.69a.22.22 0 01.22-.22h.64a.24.24 0 01.2.12l.63 1.29a.28.28 0 01.06.12.22.22 0 01-.23.26zM.45 3.81h.7l-.43-.89H.45zm9.33 3.94H3.05a.22.22 0 01-.22-.22.22.22 0 01.22-.23h6.73a.58.58 0 00.52-.3.23.23 0 01.29-.13.23.23 0 01.13.29 1 1 0 01-.94.59zM7 1.57a.13.13 0 01-.13-.13V.57a.31.31 0 00-.31-.3.3.3 0 00-.3.3v.87a.13.13 0 01-.14.13.13.13 0 01-.13-.13V.57A.58.58 0 016.51 0a.57.57 0 01.57.57v.87a.13.13 0 01-.08.13zm2.13 2.59H7.36A.13.13 0 017.24 4V2.47a.12.12 0 01.12-.12h.36a1.33 1.33 0 01.63.15 1.19 1.19 0 01.43.4L9.24 4a.14.14 0 010 .11.12.12 0 01-.11.05zm-1.64-.25h1.45L8.57 3a1 1 0 00-.33-.3 1.11 1.11 0 00-.52-.13h-.23z"/><path d="M7.59 1.22c-.71 0-.75 0-.75-.16V.64A.12.12 0 017 .51L9.36.28a.14.14 0 01.1 0 .11.11 0 010 .09v.65a.14.14 0 01-.13.14zM7.11.94h2.13V.56l-2.13.2zm-1.66.28H3.67a.15.15 0 01-.13-.14V.41a.15.15 0 010-.09.15.15 0 01.11 0l2.4.23a.13.13 0 01.12.13v.42c.04.12-.01.12-.72.12zM3.81.93L5.45 1h.49V.76L3.81.56zm1.11 6.65a.18.18 0 01-.18-.18V6.27a.18.18 0 01.36 0V7.4a.18.18 0 01-.18.18zm3.98 0a.18.18 0 01-.18-.18V6.27a.18.18 0 01.36 0V7.4a.18.18 0 01-.18.18zM6.66 6.23a.09.09 0 01-.09-.09V2.47a.09.09 0 01.18 0v3.67a.09.09 0 01-.09.09zm1.43-1.5h-.63a.11.11 0 01-.11-.12.11.11 0 01.11-.11h.63a.11.11 0 01.11.11.11.11 0 01-.11.12z"/></g></g></svg><svg aria-hidden="true" data-prefix="far" data-icon="clock" class="fsvg-inline--fa ffa-clock ffa-w-16" viewBox="0 0 512 512" id="clock" xmlns="http://www.w3.org/2000/svg"><path fill="currentColor" d="M256 8C119 8 8 119 8 256s111 248 248 248 248-111 248-248S393 8 256 8zm0 448c-110.5 0-200-89.5-200-200S145.5 56 256 56s200 89.5 200 200-89.5 200-200 200zm61.8-104.4l-84.9-61.7c-3.1-2.3-4.9-5.9-4.9-9.7V116c0-6.6 5.4-12 12-12h32c6.6 0 12 5.4 12 12v141.7l66.8 48.6c5.4 3.9 6.5 11.4 2.6 16.8L334.6 349c-3.9 5.3-11.4 6.5-16.8 2.6z"/></svg><svg viewBox="0 0 7.61 6.66" id="drugs" xmlns="http://www.w3.org/2000/svg"><g data-name="Layer 2"><g data-name="Isolation Mode"><path d="M3.8 6.66a1.39 1.39 0 01-1.08-.52L.32 3.21a1.41 1.41 0 01.19-2 1.46 1.46 0 012 .2l2.4 2.94a1.4 1.4 0 01-.2 2 1.37 1.37 0 01-.91.31zm-2.4-5.3a.94.94 0 00-.6.22 1 1 0 00-.14 1.34l2.4 2.94A1 1 0 004.41 6a.93.93 0 00.34-.65.94.94 0 00-.21-.7l-2.4-2.93a.93.93 0 00-.74-.36z"/><path d="M1.69 4.76a.21.21 0 01-.17-.08.22.22 0 010-.32l1.85-1.49a.23.23 0 11.29.35L1.83 4.71a.24.24 0 01-.14.05zm4.24-1.39a1.68 1.68 0 01-1.3-.62 1.63 1.63 0 01-.37-1.23A1.64 1.64 0 014.87.38 1.62 1.62 0 015.93 0a1.71 1.71 0 011.31.62A1.69 1.69 0 017 3a1.72 1.72 0 01-1.07.37zm0-2.92a1.24 1.24 0 00-.78.28 1.19 1.19 0 00-.45.83 1.29 1.29 0 00.3.91 1.28 1.28 0 001.74.17A1.23 1.23 0 005.93.45z"/><path d="M5.49 3.3h-.06a.22.22 0 01-.15-.3L6.05.23a.22.22 0 01.27-.16.24.24 0 01.16.28l-.77 2.78a.23.23 0 01-.22.17z"/></g></g></svg><svg viewBox="0 0 10.03 9.46" id="emergency" xmlns="http://www.w3.org/2000/svg"><g data-name="Layer 2"><g data-name="Isolation Mode"><path d="M6.72 8.89a.14.14 0 01-.11-.06L4.88 6.49a.14.14 0 11.22-.16l1.73 2.34a.14.14 0 010 .19z"/><path d="M5.28 9.46a2.69 2.69 0 01-.4 0 2.63 2.63 0 01-1.71-1L.51 4.8A2.63 2.63 0 010 2.86a2.57 2.57 0 011-1.71l.35-.22a.6.6 0 01.47-.11.58.58 0 01.41.25l1.16 1.57a.74.74 0 01.15.52.73.73 0 01-.25.48L2.84 4l1.74 2.4.51-.32A.76.76 0 015.62 6a.71.71 0 01.46.29l1.16 1.56a.6.6 0 01.12.47.64.64 0 01-.25.41L6.82 9a2.61 2.61 0 01-1.54.46zM1.74 1.25a.17.17 0 00-.13 0l-.29.21a2.15 2.15 0 00-.86 1.46 2.22 2.22 0 00.4 1.62l2.66 3.6A2.16 2.16 0 005 9a2.1 2.1 0 001.61-.4l.29-.21a.22.22 0 00.08-.13.18.18 0 000-.14L5.73 6.54a.25.25 0 00-.19-.12.29.29 0 00-.22 0l-.68.41a.22.22 0 01-.29 0l-2-2.68a.22.22 0 010-.3L3 3.31a.3.3 0 00.1-.2.31.31 0 00-.1-.22L1.88 1.33a.18.18 0 00-.13-.08z"/><path d="M2.94 3.78a.14.14 0 01-.11-.06L1.11 1.38a.13.13 0 010-.19.13.13 0 01.18 0l1.76 2.37a.14.14 0 010 .19.11.11 0 01-.11.03zm3.95 2.59h-.08a.18.18 0 01-.1-.19l.13-.87a2.72 2.72 0 01-2.57-2.65A2.78 2.78 0 017.15 0 2.78 2.78 0 0110 2.66a2.68 2.68 0 01-2 2.51L7 6.31a.19.19 0 01-.11.06zm.26-6a2.42 2.42 0 00-2.52 2.3 2.39 2.39 0 002.43 2.27.21.21 0 01.13.06.18.18 0 010 .14l-.08.47.66-.73a.19.19 0 01.09 0 2.31 2.31 0 001.81-2.22A2.42 2.42 0 007.15.36z"/><path d="M7.59 4.35H6.7a.18.18 0 01-.17-.18v-.81h-.82a.18.18 0 01-.18-.18v-.89a.18.18 0 01.18-.18h.82V1.3a.18.18 0 01.17-.18h.89a.18.18 0 01.18.18v.81h.81a.18.18 0 01.18.18v.89a.18.18 0 01-.18.18h-.81v.81a.18.18 0 01-.18.18zM6.88 4h.53v-.82A.18.18 0 017.59 3h.81v-.53h-.81a.18.18 0 01-.18-.18v-.81h-.53v.81a.18.18 0 01-.18.18h-.81V3h.81a.18.18 0 01.18.18z"/></g></g></svg><svg aria-hidden="true" data-prefix="fab" data-icon="facebook-f" class="isvg-inline--fa ifa-facebook-f ifa-w-10" viewBox="0 0 320 512" id="facebook" xmlns="http://www.w3.org/2000/svg"><path fill="currentColor" d="M279.14 288l14.22-92.66h-88.91v-60.13c0-25.35 12.42-50.06 52.24-50.06h40.42V6.26S260.43 0 225.36 0c-73.22 0-121.08 44.38-121.08 124.72v70.62H22.89V288h81.39v224h100.17V288z"/></svg><svg aria-hidden="true" data-prefix="fab" data-icon="google-plus-g" class="jsvg-inline--fa jfa-google-plus-g jfa-w-20" viewBox="0 0 640 512" id="google-plus" xmlns="http://www.w3.org/2000/svg"><path fill="currentColor" d="M386.061 228.496c1.834 9.692 3.143 19.384 3.143 31.956C389.204 370.205 315.599 448 204.8 448c-106.084 0-192-85.915-192-192s85.916-192 192-192c51.864 0 95.083 18.859 128.611 50.292l-52.126 50.03c-14.145-13.621-39.028-29.599-76.485-29.599-65.484 0-118.92 54.221-118.92 121.277 0 67.056 53.436 121.277 118.92 121.277 75.961 0 104.513-54.745 108.965-82.773H204.8v-66.009h181.261zm185.406 6.437V179.2h-56.001v55.733h-55.733v56.001h55.733v55.733h56.001v-55.733H627.2v-56.001h-55.733z"/></svg><svg viewBox="0 0 9.91 8.85" id="heart" xmlns="http://www.w3.org/2000/svg"><g data-name="Layer 2"><g data-name="Isolation Mode"><path d="M4.81 8.85h-.09A10.35 10.35 0 01.2 3.69a2.63 2.63 0 01.25-2.5A2.8 2.8 0 012.71 0a2.85 2.85 0 012.15 1 3 3 0 012.21-1 2.87 2.87 0 012.4 1.37 2.77 2.77 0 01.15 2.73 9.53 9.53 0 01-4.71 4.72zM2.71.45a2.33 2.33 0 00-1.89 1 2.23 2.23 0 00-.2 2.09 10.11 10.11 0 004.22 4.82 9.34 9.34 0 004.38-4.44 2.33 2.33 0 00-.13-2.3 2.44 2.44 0 00-2-1.17A2.72 2.72 0 005 1.52l-.18.22-.16-.23A2.5 2.5 0 002.71.45z"/><path d="M5.2 6.66L3.64 2.81l-.93 1.91H.85v-.35h1.63l1.19-2.44L5.2 5.72l1.16-2.76.78 1.41h2.15v.35H6.93l-.53-.94-1.2 2.88z"/></g></g></svg><svg aria-hidden="true" data-prefix="fab" data-icon="linkedin-in" class="lsvg-inline--fa lfa-linkedin-in lfa-w-14" viewBox="0 0 448 512" id="linkedin" xmlns="http://www.w3.org/2000/svg"><path fill="currentColor" d="M100.28 448H7.4V148.9h92.88zM53.79 108.1C24.09 108.1 0 83.5 0 53.8a53.79 53.79 0 01107.58 0c0 29.7-24.1 54.3-53.79 54.3zM447.9 448h-92.68V302.4c0-34.7-.7-79.2-48.29-79.2-48.29 0-55.69 37.7-55.69 76.7V448h-92.78V148.9h89.08v40.8h1.3c12.4-23.5 42.69-48.3 87.88-48.3 94 0 111.28 61.9 111.28 142.3V448z"/></svg><svg viewBox="0 0 52 54" id="location" xmlns="http://www.w3.org/2000/svg"><defs><style>.mcls-1{fill:#424242}</style></defs><g id="mLayer_2" data-name="Layer 2"><g id="micons"><path class="mcls-1" d="M25.25 41.67A1 1 0 0026 42a.92.92 0 00.75-.34c.35-.39 8.48-9.7 13-20a15 15 0 001.48-6.5 15.26 15.26 0 00-30.51 0 15 15 0 001.45 6.47C16.65 32 24.9 41.27 25.25 41.67zM26 2a13.22 13.22 0 0113.2 13.17 13 13 0 01-1.3 5.67c-3.6 8.24-9.78 16.05-11.9 18.62-2.15-2.56-8.42-10.38-12-18.65a13 13 0 01-1.27-5.64A13.23 13.23 0 0126 2z"/><path class="mcls-1" d="M26 22.23A7.24 7.24 0 1018.71 15 7.24 7.24 0 0026 22.23zm0-12.47A5.24 5.24 0 1120.71 15 5.25 5.25 0 0126 9.76zm26 42.99l-6-23a1 1 0 00-.6-.68l-5-2-.74 1.86 4.53 1.81 5.32 20.38-10-5a1 1 0 00-.87 0L26 51.9l-12.58-5.81a1 1 0 00-.87 0l-10 5 5.29-20.35 4.53-1.81-.74-1.86-5 2a1 1 0 00-.6.68l-6 23a1 1 0 00.34 1 1 1 0 001.08.11L13 48.11l12.56 5.8a1 1 0 00.84 0l12.6-5.8 11.57 5.78A.91.91 0 0051 54a1 1 0 00.63-.22 1 1 0 00.37-1.03z"/></g></g></svg><svg viewBox="0 0 10.12 8.98" id="logo-small" xmlns="http://www.w3.org/2000/svg"><g data-name="Layer 2"><g data-name="Isolation Mode"><path d="M4.59 8.87h-.45V7.24a.74.74 0 00-.09-.36.81.81 0 00-.24-.28L1.93 5.29v-.87a.13.13 0 000-.1.18.18 0 00-.1 0h-.5v1.33H.84V4.32A.45.45 0 011 4a.45.45 0 01.34-.15h.46a.58.58 0 01.59.59v.64l1.67 1.15a1.17 1.17 0 01.39.44 1.26 1.26 0 01.14.57z"/><path d="M2.66 9h-.44V7.88L.45 6.67a1 1 0 01-.33-.34A1 1 0 010 5.86V3.18a.83.83 0 01.24-.58.84.84 0 01.58-.24h.4A.68.68 0 011.9 3v1h-.44V3a.24.24 0 00-.24-.23h-.4a.38.38 0 00-.37.37v2.72a.54.54 0 00.06.25.66.66 0 00.18.19l2 1.35zM6 8.87h-.47V7.24a1.26 1.26 0 01.14-.57 1.36 1.36 0 01.39-.44l1.68-1.17v-.64A.58.58 0 017.92 4a.57.57 0 01.41-.17h.46a.49.49 0 01.35.17.48.48 0 01.14.34v1.31h-.45V4.32h-.5a.14.14 0 00-.14.14v.87L6.32 6.6a.78.78 0 00-.32.64z"/><path d="M7.9 9h-.44V7.65l2-1.35a.5.5 0 00.19-.19.54.54 0 00.06-.25V3.18a.35.35 0 00-.1-.26.39.39 0 00-.27-.11H8.9a.24.24 0 00-.23.19v1h-.45V3a.68.68 0 01.68-.68h.4a.83.83 0 01.58.24.78.78 0 01.24.58v2.72a.93.93 0 01-.12.46 1 1 0 01-.33.36L7.9 7.88zM5.63 4.63H4.34a.22.22 0 01-.22-.23V3.18H2.9A.22.22 0 012.67 3V1.67a.23.23 0 01.23-.23h1.22V.22A.22.22 0 014.34 0h1.29a.22.22 0 01.23.22v1.22h1.22a.22.22 0 01.22.23V3a.22.22 0 01-.22.22H5.86V4.4a.23.23 0 01-.23.23zm-1.07-.45h.85V3a.22.22 0 01.22-.22h1.22v-.89H5.63a.22.22 0 01-.22-.22V.45h-.85v1.22a.22.22 0 01-.22.22H3.12v.85h1.22a.22.22 0 01.22.26z"/></g></g></svg><svg viewBox="0 0 10.63 9.23" id="lung" xmlns="http://www.w3.org/2000/svg"><g data-name="Layer 2"><g data-name="Isolation Mode"><path d="M.81 9.23A.69.69 0 01.3 9a1.26 1.26 0 01-.3-.92V7.7c0-1.28-.07-3 2.39-5.45a2.4 2.4 0 011.27-.71c.27 0 .7.14.7 1.09v4s.13 1.26-.72 1.51a3.61 3.61 0 01-.53.12A2.66 2.66 0 002 8.73a2.72 2.72 0 01-1.19.5zM3.67 2a2 2 0 00-1 .59C.37 4.84.4 6.49.43 7.69v.39c0 .41.08.58.16.65a.28.28 0 00.21.08 2.26 2.26 0 001-.43A2.91 2.91 0 013 7.8l.5-.12c.5-.15.5-1.06.5-1.07v-4C4 2.19 3.86 2 3.67 2zm6.16 7.23a2.6 2.6 0 01-1.21-.49 2.69 2.69 0 00-1.11-.53A3.92 3.92 0 017 8.09c-.84-.25-.72-1.48-.72-1.53V2.63c0-.95.44-1.09.7-1.09a2.44 2.44 0 011.28.71c2.46 2.41 2.42 4.17 2.39 5.45v.38a1.3 1.3 0 01-.28.95.71.71 0 01-.54.2zM7 2c-.18 0-.27.23-.27.67v4s-.09 1 .41 1.1l.49.12a2.74 2.74 0 011.24.57 2.38 2.38 0 001 .44.28.28 0 00.13-.17.91.91 0 00.16-.65v-.39c0-1.2.07-2.85-2.26-5.14A2 2 0 007 2z"/><path d="M6.37 3.55s-.84-.27-.84-1V.36h-.47v2.23c0 .68-.8.94-.84 1A.17.17 0 014 3.42a.18.18 0 01.11-.22s.59-.2.59-.61V.18A.18.18 0 014.88 0h.78a.18.18 0 01.18.18v2.41c0 .42.58.61.59.61a.18.18 0 01.11.22.17.17 0 01-.17.13z"/><path d="M4.16 4.53A.17.17 0 014 4.38a.18.18 0 01.13-.21 1.71 1.71 0 001-.75.16.16 0 01.15-.07.18.18 0 01.15.08c.12.21.54.73 1 .73a.18.18 0 110 .36 1.58 1.58 0 01-1.13-.69 2 2 0 01-1 .69zm1.5-3.37h-.78A.13.13 0 014.75 1a.13.13 0 01.13-.11h.78a.13.13 0 01.13.11.13.13 0 01-.13.16zm0 .68h-.78a.13.13 0 01-.13-.13.13.13 0 01.13-.14h.78a.13.13 0 01.13.14.13.13 0 01-.13.13zm0 .67h-.78a.13.13 0 010-.26h.78a.13.13 0 010 .26z"/></g></g></svg><svg aria-hidden="true" data-prefix="fas" data-icon="envelope" class="psvg-inline--fa pfa-envelope pfa-w-16" viewBox="0 0 512 512" id="mail" xmlns="http://www.w3.org/2000/svg"><path fill="currentColor" d="M502.3 190.8c3.9-3.1 9.7-.2 9.7 4.7V400c0 26.5-21.5 48-48 48H48c-26.5 0-48-21.5-48-48V195.6c0-5 5.7-7.8 9.7-4.7 22.4 17.4 52.1 39.5 154.1 113.6 21.1 15.4 56.7 47.8 92.2 47.6 35.7.3 72-32.8 92.3-47.6 102-74.1 131.6-96.3 154-113.7zM256 320c23.2.4 56.6-29.2 73.4-41.4 132.7-96.3 142.8-104.7 173.4-128.7 5.8-4.5 9.2-11.5 9.2-18.9v-19c0-26.5-21.5-48-48-48H48C21.5 64 0 85.5 0 112v19c0 7.4 3.4 14.3 9.2 18.9 30.6 23.9 40.7 32.4 173.4 128.7 16.8 12.2 50.2 41.8 73.4 41.4z"/></svg><svg viewBox="0 0 54 42" id="mail-thin" xmlns="http://www.w3.org/2000/svg"><defs><style>.qcls-1{fill:#424242}</style></defs><g id="qLayer_2" data-name="Layer 2"><g id="qicons"><path class="qcls-1" d="M49 0H5a5 5 0 00-5 5v32a5 5 0 005 5h44a5 5 0 005-5V5a5 5 0 00-5-5zm3 37a3 3 0 01-3 3H5a3 3 0 01-3-3V5a3 3 0 013-3h44a3 3 0 013 3z"/><path class="qcls-1" d="M48.35 4.24l-19 16.39a3.79 3.79 0 01-4.74 0L5.65 4.24a1 1 0 00-1.3 1.52l19 16.38a5.79 5.79 0 007.36 0l19-16.38a1 1 0 00-1.3-1.52z"/></g></g></svg><svg viewBox="0 0 8.9 9.16" id="medicine-symbol" xmlns="http://www.w3.org/2000/svg"><g data-name="Layer 2"><g data-name="Isolation Mode"><path d="M5.63 9.16H3.26A.22.22 0 013 8.93V7.34l-1.29.93a.23.23 0 01-.32 0L0 6.3a.23.23 0 010-.16A.24.24 0 01.09 6L2 4.58.09 3.17A.24.24 0 010 3a.25.25 0 010-.17L1.43.93a.23.23 0 01.31-.05L3 1.82V.22A.22.22 0 013.26 0h2.37a.22.22 0 01.23.22v1.6L7.15.88a.33.33 0 01.17 0 .23.23 0 01.14.09l1.39 1.88a.22.22 0 010 .32l-2 1.41L8.8 6a.24.24 0 01.09.15.19.19 0 010 .16L7.46 8.22a.21.21 0 01-.31 0l-1.29-.88v1.59a.23.23 0 01-.23.23zm-2.14-.45h1.92V6.9a.24.24 0 01.12-.2.21.21 0 01.23 0l1.47 1.08 1.13-1.56-2-1.46a.22.22 0 010-.36l2-1.46-1.13-1.56-1.47 1.06a.21.21 0 01-.23 0 .24.24 0 01-.12-.2V.45H3.49v1.81a.23.23 0 01-.13.2.21.21 0 01-.23 0L1.66 1.38.54 2.94l2 1.46a.22.22 0 010 .36l-2 1.46 1.12 1.56 1.47-1.06a.21.21 0 01.23 0 .23.23 0 01.13.2z"/><path d="M4.45 7.59a.14.14 0 01-.14-.14v-5a.13.13 0 01.14-.13.13.13 0 01.13.13v5a.13.13 0 01-.13.14z"/><path d="M4.45 7.16a.65.65 0 01-.47-.52.46.46 0 01.35-.58h.1c.1 0 .26-.1.29-.17a.17.17 0 000-.08 1 1 0 00-.34-.2.93.93 0 01-.44-.28.38.38 0 01-.06-.35c.08-.23.39-.32.63-.39.16 0 .26-.13.27-.18s0-.08-.14-.15a1.41 1.41 0 00-.21-.1c-.35-.17-.84-.4-.78-.74A.42.42 0 013.91 3a1.21 1.21 0 01.92 0 .14.14 0 01.07.18.13.13 0 01-.18.06 1 1 0 00-.68 0 .17.17 0 00-.1.13c0 .14.46.37.64.45l.23.12c.24.15.28.31.26.42s-.19.32-.45.4c-.16.05-.42.13-.46.23a.16.16 0 000 .12.93.93 0 00.31.18.93.93 0 01.48.32.4.4 0 010 .3c-.07.18-.29.26-.45.32h-.14c-.17.07-.21.09-.19.3s.14.23.31.3a.14.14 0 01.07.18.13.13 0 01-.1.15z"/><path d="M5 3.47a.28.28 0 01-.37 0 .27.27 0 01-.1-.35.26.26 0 01.37 0 .28.28 0 01.1.35z"/></g></g></svg><svg viewBox="0 0 7.96 9.91" id="microscope" xmlns="http://www.w3.org/2000/svg"><g data-name="Layer 2"><g data-name="Isolation Mode"><path d="M4.9 7.81H.66c-.05 0-.1-.06-.1-.14v-.5c0-.08 0-.14.1-.14H4.9c.06 0 .1.06.1.14v.5c0 .08 0 .14-.1.14zM.76 7.54h4V7.3h-4zm7.02 2.37H.18A.18.18 0 010 9.73v-1a.18.18 0 01.18-.18h7.6a.18.18 0 01.22.18v1a.18.18 0 01-.22.18zM.36 9.55H7.6v-.64H.36z"/><path d="M7.68 8.91H4.22a.23.23 0 01-.17-.11.21.21 0 010-.19 4.53 4.53 0 001.1-2.83 2.77 2.77 0 00-1-1.9.17.17 0 010-.23l.6-.93a.18.18 0 01.19-.08c.61.14 3.62 1.08 2.94 6.13a.18.18 0 01-.2.14zm-3.09-.38h2.94C8.05 4.21 5.7 3.21 5 3l-.44.7a3 3 0 011 2 4.56 4.56 0 01-.97 2.83zM5 1.27L3.51.86a.1.1 0 01-.08-.07.12.12 0 010-.1L3.58.1a.16.16 0 01.17-.1l1.44.41a.14.14 0 01.09.17l-.16.59a.11.11 0 01-.07.08.07.07 0 01-.05.02zM3.71.64L4.9 1 5 .63 3.8.3z"/><path d="M4 5.21l-1.78-.5a.31.31 0 01-.11-.09.15.15 0 010-.13L3 1.23a.17.17 0 01.22-.12l1.78.5a.18.18 0 01.13.22l-.94 3.25a.14.14 0 01-.09.11.11.11 0 01-.1.02zm-1.56-.8l1.43.4.84-2.91-1.43-.4z"/><path d="M5.21 2l-2.33-.7a.14.14 0 01-.09-.17L3 .56a.16.16 0 010-.08.12.12 0 01.1 0l2.29.65a.13.13 0 01.1.16l-.16.57a.11.11 0 01-.07.08zm-2.13-.92l2 .57.09-.31-2-.58zM4.2 5.81l-2.42-.68a.12.12 0 01-.08-.06.12.12 0 010-.1l.14-.52A.14.14 0 012 4.36L4.39 5a.13.13 0 01.09.17l-.15.51a.1.1 0 01-.06.08.08.08 0 01-.07.05zM2 4.91l2.13.6.07-.26-2.13-.6z"/><path d="M3.36 6.22l-1-.29a.13.13 0 01-.08-.07.16.16 0 010-.1l.15-.52a.13.13 0 01.16-.09l1 .3a.13.13 0 01.09.16l-.14.52a.14.14 0 01-.07.08zm-.88-.52l.78.22.08-.26-.79-.22zM4.38 4h-.07a.9.9 0 01-.85-1 .88.88 0 01.89-.85.89.89 0 01.85.93.78.78 0 01-.82.92zm0-1.51a.62.62 0 10-.06 1.21h.06c.41 0 .57-.17.59-.6a.62.62 0 00-.59-.64z"/><path d="M5 3.11a.69.69 0 11-.66-.72.68.68 0 01.66.72z"/></g></g></svg><svg aria-hidden="true" data-prefix="fas" data-icon="mobile-alt" class="tsvg-inline--fa tfa-mobile-alt tfa-w-10" viewBox="0 0 320 512" id="phone" xmlns="http://www.w3.org/2000/svg"><path fill="currentColor" d="M272 0H48C21.5 0 0 21.5 0 48v416c0 26.5 21.5 48 48 48h224c26.5 0 48-21.5 48-48V48c0-26.5-21.5-48-48-48zM160 480c-17.7 0-32-14.3-32-32s14.3-32 32-32 32 14.3 32 32-14.3 32-32 32zm112-108c0 6.6-5.4 12-12 12H60c-6.6 0-12-5.4-12-12V60c0-6.6 5.4-12 12-12h200c6.6 0 12 5.4 12 12v312z"/></svg><svg viewBox="0 0 36 54" id="phone-thin" xmlns="http://www.w3.org/2000/svg"><defs><style>.ucls-1{fill:#424242}</style></defs><g id="uLayer_2" data-name="Layer 2"><g id="uicons"><path class="ucls-1" d="M31 0H5a5 5 0 00-5 5v44a5 5 0 005 5h26a5 5 0 005-5V5a5 5 0 00-5-5zM2 9h32v31H2zm3-7h26a3 3 0 013 3v2H2V5a3 3 0 013-3zm26 50H5a3 3 0 01-3-3v-7h32v7a3 3 0 01-3 3z"/><path class="ucls-1" d="M20 46h-4a1 1 0 000 2h4a1 1 0 000-2z"/></g></g></svg><svg aria-hidden="true" data-prefix="fas" data-icon="play" class="vsvg-inline--fa vfa-play vfa-w-14" viewBox="0 0 448 512" id="play" xmlns="http://www.w3.org/2000/svg"><path fill="currentColor" d="M424.4 214.7L72.4 6.6C43.8-10.3 0 6.1 0 47.9V464c0 37.5 40.7 60.1 72.4 41.3l352-208c31.4-18.5 31.5-64.1 0-82.6z"/></svg><svg viewBox="0 0 7.28 12.08" id="staff" xmlns="http://www.w3.org/2000/svg"><g data-name="Layer 2"><g data-name="Isolation Mode"><path d="M6.84 8.64a.22.22 0 01-.22-.22V4.2c0-.08-.06-1.95-3.13-1.95C.93 2.25.74 4.14.73 4.22v4.15a.22.22 0 01-.22.22.22.22 0 01-.23-.22V4.2s.24-2.4 3.21-2.4C7 1.8 7.06 4.17 7.06 4.2v4.22a.22.22 0 01-.22.22z"/><path d="M6.79 12.08H.49A.23.23 0 01.28 12 3.15 3.15 0 010 10.64a3.22 3.22 0 013.22-3.22h.83a3.23 3.23 0 013.23 3.22A3.32 3.32 0 017 12a.23.23 0 01-.21.08zm-6.15-.44h6a2.69 2.69 0 00.19-1 2.77 2.77 0 00-2.78-2.77h-.83a2.77 2.77 0 00-2.77 2.77 2.69 2.69 0 00.19 1z"/><path d="M3.64 11.82a.19.19 0 01-.17-.12L2.25 7.81a.18.18 0 010-.16.2.2 0 01.15-.07H5a.19.19 0 01.15.08.18.18 0 010 .16L3.81 11.7a.18.18 0 01-.17.12zm-1-3.88l1 3.13 1.09-3.13zm1.01-.6a2.57 2.57 0 01-2.59-2.57.18.18 0 01.36 0A2.21 2.21 0 003.63 7a2.06 2.06 0 002.21-2 .18.18 0 11.36 0 2.42 2.42 0 01-2.55 2.34z"/><path d="M3.49 11.78a.18.18 0 01-.1 0l-1.07-1.15a.14.14 0 010-.19l.36-.36-1.21-.25a.13.13 0 01-.09-.07.14.14 0 010-.11l.75-1.89a.14.14 0 01.18-.08.13.13 0 01.07.17l-.7 1.75L3 9.87a.13.13 0 01.1.09.17.17 0 010 .14l-.45.44 1 1a.14.14 0 010 .19.18.18 0 01-.16.05z"/><path d="M3.82 11.78a.18.18 0 01-.1 0 .14.14 0 010-.19l1-1-.45-.44a.17.17 0 010-.14.15.15 0 01.1-.09l1.3-.27-.74-1.8A.14.14 0 015 7.68a.14.14 0 01.18.08l.75 1.89a.11.11 0 010 .11.11.11 0 01-.09.07l-1.21.25.36.36a.14.14 0 010 .19l-1.08 1.11a.18.18 0 01-.09.04zm2.46-.54h-.73a.13.13 0 01-.14-.13v-.56a.13.13 0 01.14-.13h.73a.13.13 0 01.14.13v.56a.13.13 0 01-.14.13zm-.6-.24h.47v-.28h-.47z"/><path d="M4.66 9.15H2.81A.13.13 0 012.68 9a.13.13 0 01.13-.14h1.85a.13.13 0 01.13.14.13.13 0 01-.13.15zM5 2.6a.22.22 0 01-.15-.06 1.9 1.9 0 00-1.26-.43 2 2 0 00-1.26.41.25.25 0 01-.17 0A.24.24 0 012 2.48L1 1.23a.26.26 0 010-.17.23.23 0 01.1-.15 3.93 3.93 0 015.05 0 .24.24 0 01.09.15.24.24 0 010 .17l-1 1.26a.18.18 0 01-.15.08zm-1.4-.94a2.45 2.45 0 011.4.4l.71-.9a3.41 3.41 0 00-4.15 0l.71.9a2.42 2.42 0 011.33-.4zm2.31 3.45A3.84 3.84 0 013.5 4a3.32 3.32 0 01-2.18 1c-.09 0-.18-.07-.19-.17a.19.19 0 01.17-.19 2.92 2.92 0 002-1 .21.21 0 01.14-.07c.06 0 .1 0 .14.06a3.78 3.78 0 002.3 1.18.18.18 0 01.17.18.17.17 0 01-.14.12zm-3.23.25a.19.19 0 01-.19.19.2.2 0 01-.19-.19.19.19 0 01.19-.19.18.18 0 01.19.19zm2.17 0a.2.2 0 01-.19.19.19.19 0 01-.19-.19.18.18 0 01.19-.19.19.19 0 01.19.19z"/></g></g></svg><svg viewBox="0 0 9.03 9.26" id="treatment" xmlns="http://www.w3.org/2000/svg"><g data-name="Layer 2"><g data-name="Isolation Mode"><path d="M3.57 6.26h-2a1.59 1.59 0 01-1.1-.47A1.61 1.61 0 010 4.66V1.73a.68.68 0 01.68-.68h.59a.22.22 0 01.22.22.22.22 0 01-.22.23H.68a.23.23 0 00-.17.07.23.23 0 00-.06.16v2.93a1.11 1.11 0 00.34.81 1.11 1.11 0 00.81.34h2a.23.23 0 110 .45z"/><path d="M1.81 2.42a.67.67 0 01-.68-.67V.67a.68.68 0 011.35 0v1.08a.67.67 0 01-.67.67zm0-2a.22.22 0 00-.23.22v1.11a.23.23 0 10.45 0V.67a.22.22 0 00-.22-.22zm2.57 5.84H3.2A.22.22 0 013 6a.22.22 0 01.22-.23h1.16a1.16 1.16 0 001.15-1.11V1.73a.2.2 0 00-.07-.16.2.2 0 00-.16-.07h-.59a.22.22 0 01-.22-.23.22.22 0 01.22-.22h.59a.68.68 0 01.7.68v2.93a1.6 1.6 0 01-1.6 1.6z"/><path d="M4.17 2.42a.67.67 0 01-.67-.67V.67a.68.68 0 011.35 0v1.08a.67.67 0 01-.68.67zm0-2A.22.22 0 004 .67v1.08a.23.23 0 10.45 0V.67a.22.22 0 00-.28-.22zM5 9.26H3.69a1.08 1.08 0 01-1.08-1.08V6a.23.23 0 11.45 0v2.18a.62.62 0 00.63.63H5a.44.44 0 00.45-.45v-.83a.65.65 0 01.65-.64h.82a.22.22 0 110 .44h-.85a.25.25 0 00-.14.06.2.2 0 00-.06.14v.83a.89.89 0 01-.9.9z"/><path d="M7.9 8.1A1.12 1.12 0 119 7a1.12 1.12 0 01-1.1 1.1zm0-1.89a.77.77 0 10.77.79.77.77 0 00-.77-.79z"/><path d="M7.9 7.46A.48.48 0 118.38 7a.48.48 0 01-.48.46zm0-.69a.21.21 0 00-.2.23.2.2 0 00.2.21.21.21 0 00.21-.21.21.21 0 00-.21-.23z"/></g></g></svg><svg aria-hidden="true" data-prefix="fab" data-icon="vk" class="ysvg-inline--fa yfa-vk yfa-w-18" viewBox="0 0 576 512" id="vk" xmlns="http://www.w3.org/2000/svg"><path fill="currentColor" d="M545 117.7c3.7-12.5 0-21.7-17.8-21.7h-58.9c-15 0-21.9 7.9-25.6 16.7 0 0-30 73.1-72.4 120.5-13.7 13.7-20 18.1-27.5 18.1-3.7 0-9.4-4.4-9.4-16.9V117.7c0-15-4.2-21.7-16.6-21.7h-92.6c-9.4 0-15 7-15 13.5 0 14.2 21.2 17.5 23.4 57.5v86.8c0 19-3.4 22.5-10.9 22.5-20 0-68.6-73.4-97.4-157.4-5.8-16.3-11.5-22.9-26.6-22.9H38.8c-16.8 0-20.2 7.9-20.2 16.7 0 15.6 20 93.1 93.1 195.5C160.4 378.1 229 416 291.4 416c37.5 0 42.1-8.4 42.1-22.9 0-66.8-3.4-73.1 15.4-73.1 8.7 0 23.7 4.4 58.7 38.1 40 40 46.6 57.9 69 57.9h58.9c16.8 0 25.3-8.4 20.4-25-11.2-34.9-86.9-106.7-90.3-111.5-8.7-11.2-6.2-16.2 0-26.2.1-.1 72-101.3 79.4-135.6z"/></svg><svg aria-hidden="true" data-prefix="fab" data-icon="youtube" class="zsvg-inline--fa zfa-youtube zfa-w-18" viewBox="0 0 576 512" id="youtube" xmlns="http://www.w3.org/2000/svg"><path fill="currentColor" d="M549.655 124.083c-6.281-23.65-24.787-42.276-48.284-48.597C458.781 64 288 64 288 64S117.22 64 74.629 75.486c-23.497 6.322-42.003 24.947-48.284 48.597-11.412 42.867-11.412 132.305-11.412 132.305s0 89.438 11.412 132.305c6.281 23.65 24.787 41.5 48.284 47.821C117.22 448 288 448 288 448s170.78 0 213.371-11.486c23.497-6.321 42.003-24.171 48.284-47.821 11.412-42.867 11.412-132.305 11.412-132.305s0-89.438-11.412-132.305zm-317.51 213.508V175.185l142.739 81.205-142.739 81.201z"/></svg></svg>